<svg width="292" height="59" viewBox="0 0 292 59" fill="none" xmlns="http://www.w3.org/2000/svg">
<rect x="0.5" y="8.5" width="73" height="41" fill="#CDDAEC"/>
<rect x="0.5" y="8.5" width="73" height="41" stroke="#4A5A70"/>
<path d="M4.608 15.76V14.432H7.616V26H6.144V15.76H4.608Z" fill="#4A5A70"/>
<rect x="73.5" y="0.5" width="147" height="58" fill="#CDDAEC"/>
<rect x="73.5" y="0.5" width="147" height="58" stroke="#4A5A70"/>
<path d="M75.816 17.832C77.1707 16.744 78.232 15.8533 79 15.16C79.768 14.456 80.4133 13.7253 80.936 12.968C81.4693 12.2 81.736 11.448 81.736 10.712C81.736 10.0187 81.5653 9.47467 81.224 9.08C80.8933 8.67467 80.3547 8.472 79.608 8.472C78.8827 8.472 78.3173 8.70133 77.912 9.16C77.5173 9.608 77.304 10.2107 77.272 10.968H75.864C75.9067 9.77333 76.2693 8.85067 76.952 8.2C77.6347 7.54933 78.5147 7.224 79.592 7.224C80.6907 7.224 81.56 7.528 82.2 8.136C82.8507 8.744 83.176 9.58133 83.176 10.648C83.176 11.5333 82.9093 12.3973 82.376 13.24C81.8533 14.072 81.256 14.808 80.584 15.448C79.912 16.0773 79.0533 16.8133 78.008 17.656H83.512V18.872H75.816V17.832Z" fill="#4A5A70"/>
<rect x="220.5" y="8.5" width="71" height="41" fill="#CDDAEC"/>
<rect x="220.5" y="8.5" width="71" height="41" stroke="#4A5A70"/>
<path d="M222.96 17.344C223.035 16.3627 223.413 15.5947 224.096 15.04C224.779 14.4853 225.664 14.208 226.752 14.208C227.477 14.208 228.101 14.3413 228.624 14.608C229.157 14.864 229.557 15.216 229.824 15.664C230.101 16.112 230.24 16.6187 230.24 17.184C230.24 17.8453 230.048 18.416 229.664 18.896C229.291 19.376 228.8 19.6853 228.192 19.824V19.904C228.885 20.0747 229.435 20.4107 229.84 20.912C230.245 21.4133 230.448 22.0693 230.448 22.88C230.448 23.488 230.309 24.0373 230.032 24.528C229.755 25.008 229.339 25.3867 228.784 25.664C228.229 25.9413 227.563 26.08 226.784 26.08C225.653 26.08 224.725 25.7867 224 25.2C223.275 24.6027 222.869 23.76 222.784 22.672H224.192C224.267 23.312 224.528 23.8347 224.976 24.24C225.424 24.6453 226.021 24.848 226.768 24.848C227.515 24.848 228.08 24.656 228.464 24.272C228.859 23.8773 229.056 23.3707 229.056 22.752C229.056 21.952 228.789 21.376 228.256 21.024C227.723 20.672 226.917 20.496 225.84 20.496H225.472V19.28H225.856C226.837 19.2693 227.579 19.1093 228.08 18.8C228.581 18.48 228.832 17.9893 228.832 17.328C228.832 16.7627 228.645 16.3093 228.272 15.968C227.909 15.6267 227.387 15.456 226.704 15.456C226.043 15.456 225.509 15.6267 225.104 15.968C224.699 16.3093 224.459 16.768 224.384 17.344H222.96Z" fill="#4A5A70"/>
</svg>
