<svg width="292" height="94" viewBox="0 0 292 94" fill="none" xmlns="http://www.w3.org/2000/svg">
<rect x="73.5" y="0.5" width="73" height="41" fill="#CDDAEC"/>
<rect x="73.5" y="0.5" width="73" height="41" stroke="#4A5A70"/>
<path d="M75.816 17.832C77.1707 16.744 78.232 15.8533 79 15.16C79.768 14.456 80.4133 13.7253 80.936 12.968C81.4693 12.2 81.736 11.448 81.736 10.712C81.736 10.0187 81.5653 9.47467 81.224 9.08C80.8933 8.67467 80.3547 8.472 79.608 8.472C78.8827 8.472 78.3173 8.70133 77.912 9.16C77.5173 9.608 77.304 10.2107 77.272 10.968H75.864C75.9067 9.77333 76.2693 8.85067 76.952 8.2C77.6347 7.54933 78.5147 7.224 79.592 7.224C80.6907 7.224 81.56 7.528 82.2 8.136C82.8507 8.744 83.176 9.58133 83.176 10.648C83.176 11.5333 82.9093 12.3973 82.376 13.24C81.8533 14.072 81.256 14.808 80.584 15.448C79.912 16.0773 79.0533 16.8133 78.008 17.656H83.512V18.872H75.816V17.832Z" fill="#4A5A70"/>
<rect x="0.5" y="0.5" width="73" height="41" fill="#CDDAEC"/>
<rect x="0.5" y="0.5" width="73" height="41" stroke="#4A5A70"/>
<path d="M4.608 7.76V6.432H7.616V18H6.144V7.76H4.608Z" fill="#4A5A70"/>
<rect x="73.5" y="41.5" width="147" height="52" fill="#CDDAEC"/>
<rect x="73.5" y="41.5" width="147" height="52" stroke="#4A5A70"/>
<path d="M83.368 48.696H77.752V52.344C77.9973 52.0027 78.36 51.7253 78.84 51.512C79.32 51.288 79.8373 51.176 80.392 51.176C81.2773 51.176 81.9973 51.3627 82.552 51.736C83.1067 52.0987 83.5013 52.5733 83.736 53.16C83.9813 53.736 84.104 54.3493 84.104 55C84.104 55.768 83.96 56.456 83.672 57.064C83.384 57.672 82.9413 58.152 82.344 58.504C81.7573 58.856 81.0267 59.032 80.152 59.032C79.032 59.032 78.1253 58.744 77.432 58.168C76.7387 57.592 76.3173 56.824 76.168 55.864H77.592C77.7307 56.472 78.024 56.9467 78.472 57.288C78.92 57.6293 79.4853 57.8 80.168 57.8C81.0107 57.8 81.6453 57.5493 82.072 57.048C82.4987 56.536 82.712 55.864 82.712 55.032C82.712 54.2 82.4987 53.56 82.072 53.112C81.6453 52.6533 81.016 52.424 80.184 52.424C79.6187 52.424 79.1227 52.5627 78.696 52.84C78.28 53.1067 77.976 53.4747 77.784 53.944H76.408V47.416H83.368V48.696Z" fill="#4A5A70"/>
<rect x="146.5" y="0.5" width="74" height="41" fill="#CDDAEC"/>
<rect x="146.5" y="0.5" width="74" height="41" stroke="#4A5A70"/>
<path d="M148.96 9.344C149.035 8.36267 149.413 7.59467 150.096 7.04C150.779 6.48533 151.664 6.208 152.752 6.208C153.477 6.208 154.101 6.34133 154.624 6.608C155.157 6.864 155.557 7.216 155.824 7.664C156.101 8.112 156.24 8.61867 156.24 9.184C156.24 9.84533 156.048 10.416 155.664 10.896C155.291 11.376 154.8 11.6853 154.192 11.824V11.904C154.885 12.0747 155.435 12.4107 155.84 12.912C156.245 13.4133 156.448 14.0693 156.448 14.88C156.448 15.488 156.309 16.0373 156.032 16.528C155.755 17.008 155.339 17.3867 154.784 17.664C154.229 17.9413 153.563 18.08 152.784 18.08C151.653 18.08 150.725 17.7867 150 17.2C149.275 16.6027 148.869 15.76 148.784 14.672H150.192C150.267 15.312 150.528 15.8347 150.976 16.24C151.424 16.6453 152.021 16.848 152.768 16.848C153.515 16.848 154.08 16.656 154.464 16.272C154.859 15.8773 155.056 15.3707 155.056 14.752C155.056 13.952 154.789 13.376 154.256 13.024C153.723 12.672 152.917 12.496 151.84 12.496H151.472V11.28H151.856C152.837 11.2693 153.579 11.1093 154.08 10.8C154.581 10.48 154.832 9.98933 154.832 9.328C154.832 8.76267 154.645 8.30933 154.272 7.968C153.909 7.62667 153.387 7.456 152.704 7.456C152.043 7.456 151.509 7.62667 151.104 7.968C150.699 8.30933 150.459 8.768 150.384 9.344H148.96Z" fill="#4A5A70"/>
<rect x="220.5" y="0.5" width="71" height="41" fill="#CDDAEC"/>
<rect x="220.5" y="0.5" width="71" height="41" stroke="#4A5A70"/>
<path d="M222.64 15.424V14.32L228.256 6.544H230V14.16H231.6V15.424H230V18H228.56V15.424H222.64ZM228.624 8.064L224.32 14.16H228.624V8.064Z" fill="#4A5A70"/>
</svg>
