<svg width="16" height="16" viewBox="0 0 16 16" fill="none" xmlns="http://www.w3.org/2000/svg">
<path d="M6.5 2.83337H1.83333C1.1 2.83337 0.5 3.43337 0.5 4.16671V5.50004" stroke="#2C2C2C" stroke-miterlimit="10" stroke-linecap="round" stroke-linejoin="round"/>
<path d="M0.5 10.1666V11.8333C0.5 12.5666 1.1 13.1666 1.83333 13.1666H6.5" stroke="#2C2C2C" stroke-miterlimit="10" stroke-linecap="round" stroke-linejoin="round"/>
<path d="M3.16669 7.83301H7.10002" stroke="#2C2C2C" stroke-miterlimit="10" stroke-linecap="round" stroke-linejoin="round"/>
<path d="M4.09998 6.16667L2.49998 7.83333L4.09998 9.5" stroke="#2C2C2C" stroke-miterlimit="10" stroke-linecap="round" stroke-linejoin="round"/>
<path d="M9.4978 2.83337H14.1645C14.8978 2.83337 15.4978 3.43337 15.4978 4.16671V5.50004" stroke="#2C2C2C" stroke-miterlimit="10" stroke-linecap="round" stroke-linejoin="round"/>
<path d="M15.4978 10.1666V11.8333C15.4978 12.5666 14.8978 13.1666 14.1645 13.1666H9.4978" stroke="#2C2C2C" stroke-miterlimit="10" stroke-linecap="round" stroke-linejoin="round"/>
<path d="M12.8312 7.83301H8.89783" stroke="#2C2C2C" stroke-miterlimit="10" stroke-linecap="round" stroke-linejoin="round"/>
<path d="M11.8978 6.16667L13.4978 7.83333L11.8978 9.5" stroke="#2C2C2C" stroke-miterlimit="10" stroke-linecap="round" stroke-linejoin="round"/>
</svg>
