<svg width="20" height="20" viewBox="0 0 20 20" fill="none" xmlns="http://www.w3.org/2000/svg">
<g clip-path="url(#clip0_584_3866)">
<path d="M16.0417 19.375H3.95833C2.125 19.375 0.625 17.875 0.625 16.0417V3.95833C0.625 2.125 2.125 0.625 3.95833 0.625H16.0417C17.875 0.625 19.375 2.125 19.375 3.95833V16.0417C19.375 17.875 17.875 19.375 16.0417 19.375Z" stroke="#13027C" stroke-miterlimit="10" stroke-linecap="round" stroke-linejoin="round"/>
<path d="M3.625 10.2917C3.29167 9.79167 3.125 9.29167 3.125 8.625C3.125 6.95834 4.45833 5.625 6.125 5.625H10.875C12.5417 5.625 13.875 6.95834 13.875 8.625C13.875 10.2917 12.5417 11.625 10.875 11.625H7.875" stroke="#13027C" stroke-miterlimit="10" stroke-linecap="round" stroke-linejoin="round"/>
<path d="M15.875 10.0416C16.2083 10.5416 16.375 11.1249 16.375 11.7083C16.375 13.3749 15.0417 14.7083 13.375 14.7083H8.625C6.95833 14.7083 5.625 13.3749 5.625 11.7083C5.625 10.0416 6.95833 8.70825 8.625 8.70825H11.625" stroke="#13027C" stroke-miterlimit="10" stroke-linecap="round" stroke-linejoin="round"/>
</g>
<defs>
<clipPath id="clip0_584_3866">
<rect width="20" height="20" fill="white"/>
</clipPath>
</defs>
</svg>
