<svg width="24" height="24" viewBox="0 0 24 24" fill="none" xmlns="http://www.w3.org/2000/svg">
<g id="Rotate Horizontal">
<g id="Group 485015">
<path id="Vector" d="M11.75 7.90909C11.75 7.40701 10.8023 7 10.25 7C9.69772 7 8.75 7.40701 8.75 7.90909L5 21.0909C5 21.593 5.44772 22 6 22H11.25C11.8023 22 11.75 21.593 11.75 21.0909V7.90909Z" stroke="#555555" stroke-linecap="round" stroke-linejoin="round"/>
</g>
<path id="Vector_2" d="M15.7512 7.90909C15.7512 7.40701 14.304 7 13.752 7C13.1999 7 13.2513 7.40701 13.2513 7.90909L13.252 21.0909C13.252 21.593 13.6982 22 14.2503 22H18.2504C18.8024 22 19.25 21.593 19.25 21.0909L15.7512 7.90909Z" stroke="#555555" stroke-linecap="round" stroke-linejoin="round"/>
<g id="Group 485018">
<path id="Vector_3" d="M1.25 4H22.75" stroke="#555555" stroke-miterlimit="10" stroke-linecap="round" stroke-linejoin="round"/>
<g id="Group 485016">
<path id="Vector_4" d="M19.75 1L22.75 4" stroke="#555555" stroke-miterlimit="10" stroke-linecap="round" stroke-linejoin="round"/>
<path id="Vector_5" d="M19.75 7L22.75 4" stroke="#555555" stroke-miterlimit="10" stroke-linecap="round" stroke-linejoin="round"/>
</g>
<g id="Group 485017">
<path id="Vector_6" d="M4 7L1 4" stroke="#555555" stroke-miterlimit="10" stroke-linecap="round" stroke-linejoin="round"/>
<path id="Vector_7" d="M4 1L1 4" stroke="#555555" stroke-miterlimit="10" stroke-linecap="round" stroke-linejoin="round"/>
</g>
</g>
</g>
</svg>
