<svg width="331" height="188" viewBox="0 0 331 188" fill="none" xmlns="http://www.w3.org/2000/svg">
<rect x="0.5" y="0.5" width="164.832" height="93.1209" fill="#CDDAEC"/>
<rect x="0.5" y="0.5" width="164.832" height="93.1209" stroke="#4A5A70"/>
<path d="M2.608 8.76V7.432H5.616V19H4.144V8.76H2.608Z" fill="#4A5A70"/>
<g clip-path="url(#clip0_584_3807)">
<path d="M71.75 47C71.75 49.9837 72.9353 52.8452 75.045 54.955C77.1548 57.0647 80.0163 58.25 83 58.25C85.9837 58.25 88.8452 57.0647 90.955 54.955C93.0647 52.8452 94.25 49.9837 94.25 47C94.25 44.0163 93.0647 41.1548 90.955 39.045C88.8452 36.9353 85.9837 35.75 83 35.75C80.0163 35.75 77.1548 36.9353 75.045 39.045C72.9353 41.1548 71.75 44.0163 71.75 47Z" fill="white"/>
<g clip-path="url(#clip1_584_3807)">
<path d="M79.625 47.1865H78.125" stroke="#4A5A70" stroke-linecap="round" stroke-linejoin="round"/>
<path d="M79.625 48.6865L78.875 49.4365" stroke="#4A5A70" stroke-linecap="round" stroke-linejoin="round"/>
<path d="M79.625 45.6865L78.875 44.9365" stroke="#4A5A70" stroke-linecap="round" stroke-linejoin="round"/>
<path d="M86.375 47.1865H87.875" stroke="#4A5A70" stroke-linecap="round" stroke-linejoin="round"/>
<path d="M86.375 48.6865L87.125 49.4365" stroke="#4A5A70" stroke-linecap="round" stroke-linejoin="round"/>
<path d="M86.375 45.6865L87.125 44.9365" stroke="#4A5A70" stroke-linecap="round" stroke-linejoin="round"/>
<path d="M81.125 45.6865V43.4365C81.1266 42.9397 81.3246 42.4637 81.6759 42.1124C82.0272 41.7612 82.5032 41.5631 83 41.5615C83.4968 41.563 83.9729 41.761 84.3242 42.1123C84.6755 42.4636 84.8735 42.9397 84.875 43.4365V46.0615C84.874 46.426 84.7671 46.7824 84.5674 47.0872C84.3677 47.3921 84.0837 47.6325 83.75 47.779C83.5137 47.8832 83.2582 47.9368 83 47.9365" stroke="#4A5A70" stroke-linecap="round" stroke-linejoin="round"/>
<path d="M84.875 48.3115V50.5615C84.8737 51.0584 84.6757 51.5345 84.3244 51.8859C83.973 52.2372 83.4969 52.4352 83 52.4365C82.5032 52.4351 82.0271 52.2371 81.6758 51.8857C81.3245 51.5344 81.1265 51.0584 81.125 50.5615V48.3115C81.1266 47.8147 81.3246 47.3387 81.6759 46.9874C82.0272 46.6362 82.5032 46.4381 83 46.4365" stroke="#4A5A70" stroke-linecap="round" stroke-linejoin="round"/>
</g>
</g>
<rect x="0.5" y="93.5" width="164.832" height="93.1209" fill="#CDDAEC"/>
<rect x="0.5" y="93.5" width="164.832" height="93.1209" stroke="#4A5A70"/>
<path d="M2.96 102.344C3.03467 101.363 3.41333 100.595 4.096 100.04C4.77867 99.4853 5.664 99.208 6.752 99.208C7.47733 99.208 8.10133 99.3413 8.624 99.608C9.15733 99.864 9.55733 100.216 9.824 100.664C10.1013 101.112 10.24 101.619 10.24 102.184C10.24 102.845 10.048 103.416 9.664 103.896C9.29067 104.376 8.8 104.685 8.192 104.824V104.904C8.88533 105.075 9.43467 105.411 9.84 105.912C10.2453 106.413 10.448 107.069 10.448 107.88C10.448 108.488 10.3093 109.037 10.032 109.528C9.75467 110.008 9.33867 110.387 8.784 110.664C8.22933 110.941 7.56267 111.08 6.784 111.08C5.65333 111.08 4.72533 110.787 4 110.2C3.27467 109.603 2.86933 108.76 2.784 107.672H4.192C4.26667 108.312 4.528 108.835 4.976 109.24C5.424 109.645 6.02133 109.848 6.768 109.848C7.51467 109.848 8.08 109.656 8.464 109.272C8.85867 108.877 9.056 108.371 9.056 107.752C9.056 106.952 8.78933 106.376 8.256 106.024C7.72267 105.672 6.91733 105.496 5.84 105.496H5.472V104.28H5.856C6.83733 104.269 7.57867 104.109 8.08 103.8C8.58133 103.48 8.832 102.989 8.832 102.328C8.832 101.763 8.64533 101.309 8.272 100.968C7.90933 100.627 7.38667 100.456 6.704 100.456C6.04267 100.456 5.50933 100.627 5.104 100.968C4.69867 101.309 4.45867 101.768 4.384 102.344H2.96Z" fill="#4A5A70"/>
<g clip-path="url(#clip2_584_3807)">
<path d="M71.75 140C71.75 142.984 72.9353 145.845 75.045 147.955C77.1548 150.065 80.0163 151.25 83 151.25C85.9837 151.25 88.8452 150.065 90.955 147.955C93.0647 145.845 94.25 142.984 94.25 140C94.25 137.016 93.0647 134.155 90.955 132.045C88.8452 129.935 85.9837 128.75 83 128.75C80.0163 128.75 77.1548 129.935 75.045 132.045C72.9353 134.155 71.75 137.016 71.75 140Z" fill="white"/>
<g clip-path="url(#clip3_584_3807)">
<path d="M79.625 140.187H78.125" stroke="#4A5A70" stroke-linecap="round" stroke-linejoin="round"/>
<path d="M79.625 141.687L78.875 142.437" stroke="#4A5A70" stroke-linecap="round" stroke-linejoin="round"/>
<path d="M79.625 138.687L78.875 137.937" stroke="#4A5A70" stroke-linecap="round" stroke-linejoin="round"/>
<path d="M86.375 140.187H87.875" stroke="#4A5A70" stroke-linecap="round" stroke-linejoin="round"/>
<path d="M86.375 141.687L87.125 142.437" stroke="#4A5A70" stroke-linecap="round" stroke-linejoin="round"/>
<path d="M86.375 138.687L87.125 137.937" stroke="#4A5A70" stroke-linecap="round" stroke-linejoin="round"/>
<path d="M81.125 138.687V136.437C81.1266 135.94 81.3246 135.464 81.6759 135.112C82.0272 134.761 82.5032 134.563 83 134.562C83.4968 134.563 83.9729 134.761 84.3242 135.112C84.6755 135.464 84.8735 135.94 84.875 136.437V139.062C84.874 139.426 84.7671 139.782 84.5674 140.087C84.3677 140.392 84.0837 140.632 83.75 140.779C83.5137 140.883 83.2582 140.937 83 140.937" stroke="#4A5A70" stroke-linecap="round" stroke-linejoin="round"/>
<path d="M84.875 141.312V143.562C84.8737 144.058 84.6757 144.535 84.3244 144.886C83.973 145.237 83.4969 145.435 83 145.437C82.5032 145.435 82.0271 145.237 81.6758 144.886C81.3245 144.534 81.1265 144.058 81.125 143.562V141.312C81.1266 140.815 81.3246 140.339 81.6759 139.987C82.0272 139.636 82.5032 139.438 83 139.437" stroke="#4A5A70" stroke-linecap="round" stroke-linejoin="round"/>
</g>
</g>
<rect x="165.091" y="93.5" width="164.832" height="93.1209" fill="#CDDAEC"/>
<rect x="165.091" y="93.5" width="164.832" height="93.1209" stroke="#4A5A70"/>
<path d="M167.231 108.424V107.32L172.847 99.544H174.591V107.16H176.191V108.424H174.591V111H173.151V108.424H167.231ZM173.215 101.064L168.911 107.16H173.215V101.064Z" fill="#4A5A70"/>
<path d="M236.341 140C236.341 142.984 237.526 145.845 239.636 147.955C241.746 150.065 244.607 151.25 247.591 151.25C250.575 151.25 253.436 150.065 255.546 147.955C257.656 145.845 258.841 142.984 258.841 140C258.841 137.016 257.656 134.155 255.546 132.045C253.436 129.935 250.575 128.75 247.591 128.75C244.607 128.75 241.746 129.935 239.636 132.045C237.526 134.155 236.341 137.016 236.341 140Z" fill="white"/>
<path d="M244.216 140.187H242.716" stroke="#4A5A70" stroke-linecap="round" stroke-linejoin="round"/>
<path d="M244.216 141.687L243.466 142.437" stroke="#4A5A70" stroke-linecap="round" stroke-linejoin="round"/>
<path d="M244.216 138.687L243.466 137.937" stroke="#4A5A70" stroke-linecap="round" stroke-linejoin="round"/>
<path d="M250.966 140.187H252.466" stroke="#4A5A70" stroke-linecap="round" stroke-linejoin="round"/>
<path d="M250.966 141.687L251.716 142.437" stroke="#4A5A70" stroke-linecap="round" stroke-linejoin="round"/>
<path d="M250.966 138.687L251.716 137.937" stroke="#4A5A70" stroke-linecap="round" stroke-linejoin="round"/>
<path d="M245.716 138.687V136.437C245.717 135.94 245.915 135.464 246.267 135.112C246.618 134.761 247.094 134.563 247.591 134.562C248.088 134.563 248.564 134.761 248.915 135.112C249.266 135.464 249.464 135.94 249.466 136.437V139.062C249.465 139.426 249.358 139.782 249.158 140.087C248.959 140.392 248.675 140.632 248.341 140.779C248.105 140.883 247.849 140.937 247.591 140.937" stroke="#4A5A70" stroke-linecap="round" stroke-linejoin="round"/>
<path d="M249.466 141.312V143.562C249.465 144.058 249.267 144.535 248.915 144.886C248.564 145.237 248.088 145.435 247.591 145.437C247.094 145.435 246.618 145.237 246.267 144.886C245.915 144.534 245.717 144.058 245.716 143.562V141.312C245.717 140.815 245.915 140.339 246.267 139.987C246.618 139.636 247.094 139.438 247.591 139.437" stroke="#4A5A70" stroke-linecap="round" stroke-linejoin="round"/>
<rect x="165.091" y="0.5" width="164.832" height="93.1209" fill="#CDDAEC"/>
<rect x="165.091" y="0.5" width="164.832" height="93.1209" stroke="#4A5A70"/>
<path d="M167.407 16.832C168.761 15.744 169.823 14.8533 170.591 14.16C171.359 13.456 172.004 12.7253 172.527 11.968C173.06 11.2 173.327 10.448 173.327 9.712C173.327 9.01867 173.156 8.47467 172.815 8.08C172.484 7.67467 171.945 7.472 171.199 7.472C170.473 7.472 169.908 7.70133 169.503 8.16C169.108 8.608 168.895 9.21067 168.863 9.968H167.455C167.497 8.77333 167.86 7.85067 168.543 7.2C169.225 6.54933 170.105 6.224 171.183 6.224C172.281 6.224 173.151 6.528 173.791 7.136C174.441 7.744 174.767 8.58133 174.767 9.648C174.767 10.5333 174.5 11.3973 173.967 12.24C173.444 13.072 172.847 13.808 172.175 14.448C171.503 15.0773 170.644 15.8133 169.599 16.656H175.103V17.872H167.407V16.832Z" fill="#4A5A70"/>
<path d="M236.341 47C236.341 49.9837 237.526 52.8452 239.636 54.955C241.746 57.0647 244.607 58.25 247.591 58.25C250.575 58.25 253.436 57.0647 255.546 54.955C257.656 52.8452 258.841 49.9837 258.841 47C258.841 44.0163 257.656 41.1548 255.546 39.045C253.436 36.9353 250.575 35.75 247.591 35.75C244.607 35.75 241.746 36.9353 239.636 39.045C237.526 41.1548 236.341 44.0163 236.341 47Z" fill="white"/>
<path d="M244.216 47.1865H242.716" stroke="#4A5A70" stroke-linecap="round" stroke-linejoin="round"/>
<path d="M244.216 48.6865L243.466 49.4365" stroke="#4A5A70" stroke-linecap="round" stroke-linejoin="round"/>
<path d="M244.216 45.6865L243.466 44.9365" stroke="#4A5A70" stroke-linecap="round" stroke-linejoin="round"/>
<path d="M250.966 47.1865H252.466" stroke="#4A5A70" stroke-linecap="round" stroke-linejoin="round"/>
<path d="M250.966 48.6865L251.716 49.4365" stroke="#4A5A70" stroke-linecap="round" stroke-linejoin="round"/>
<path d="M250.966 45.6865L251.716 44.9365" stroke="#4A5A70" stroke-linecap="round" stroke-linejoin="round"/>
<path d="M245.716 45.6865V43.4365C245.717 42.9397 245.915 42.4637 246.267 42.1124C246.618 41.7612 247.094 41.5631 247.591 41.5615C248.088 41.563 248.564 41.761 248.915 42.1123C249.266 42.4636 249.464 42.9397 249.466 43.4365V46.0615C249.465 46.426 249.358 46.7824 249.158 47.0872C248.959 47.3921 248.675 47.6325 248.341 47.779C248.105 47.8832 247.849 47.9368 247.591 47.9365" stroke="#4A5A70" stroke-linecap="round" stroke-linejoin="round"/>
<path d="M249.466 48.3115V50.5615C249.465 51.0584 249.267 51.5345 248.915 51.8859C248.564 52.2372 248.088 52.4352 247.591 52.4365C247.094 52.4351 246.618 52.2371 246.267 51.8857C245.915 51.5344 245.717 51.0584 245.716 50.5615V48.3115C245.717 47.8147 245.915 47.3387 246.267 46.9874C246.618 46.6362 247.094 46.4381 247.591 46.4365" stroke="#4A5A70" stroke-linecap="round" stroke-linejoin="round"/>
<defs>
<clipPath id="clip0_584_3807">
<rect width="24" height="24" fill="white" transform="translate(71 35)"/>
</clipPath>
<clipPath id="clip1_584_3807">
<rect width="12" height="12" fill="white" transform="translate(77 41)"/>
</clipPath>
<clipPath id="clip2_584_3807">
<rect width="24" height="24" fill="white" transform="translate(71 128)"/>
</clipPath>
<clipPath id="clip3_584_3807">
<rect width="12" height="12" fill="white" transform="translate(77 134)"/>
</clipPath>
</defs>
</svg>
