<svg width="21" height="20" viewBox="0 0 21 20" fill="none" xmlns="http://www.w3.org/2000/svg">
<g id="Coding Apps Website Monitor Image" clip-path="url(#clip0_1267_1697)">
<path id="Vector" d="M18.6029 0.83844H3.1862C2.26572 0.83844 1.51953 1.58463 1.51953 2.50511V14.0868C1.51953 15.0073 2.26572 15.7534 3.1862 15.7534H18.6029C19.5234 15.7534 20.2695 15.0073 20.2695 14.0868V2.50511C20.2695 1.58463 19.5234 0.83844 18.6029 0.83844Z" stroke="#13027C" stroke-linecap="round" stroke-linejoin="round"/>
<path id="Vector_2" d="M9.19039 15.7526L8.33789 19.1617" stroke="#13027C" stroke-linecap="round" stroke-linejoin="round"/>
<path id="Vector_3" d="M8.33789 19.1616H13.0254" stroke="#13027C" stroke-linecap="round" stroke-linejoin="round"/>
<path id="Vector_4" d="M12.5995 15.7526L13.4512 19.1617" stroke="#13027C" stroke-linecap="round" stroke-linejoin="round"/>
<path id="Vector_5" d="M14.7295 19.1616H7.05951" stroke="#13027C" stroke-linecap="round" stroke-linejoin="round"/>
<path id="Vector_6" d="M1.51953 12.76H20.2695" stroke="#13027C" stroke-linecap="round" stroke-linejoin="round"/>
<path id="Vector_7" d="M4.17371 4.29425H6.06204" stroke="#13027C" stroke-linecap="round" stroke-linejoin="round"/>
<path id="Vector_8" d="M7.95038 4.29425H9.08371" stroke="#13027C" stroke-linecap="round" stroke-linejoin="round"/>
<path id="Vector_9" d="M4.17371 6.84161H5.30621" stroke="#13027C" stroke-linecap="round" stroke-linejoin="round"/>
<path id="Vector_10" d="M7.19537 6.84161H9.08371" stroke="#13027C" stroke-linecap="round" stroke-linejoin="round"/>
<path id="Vector_11" d="M4.17371 9.38922H9.08371" stroke="#13027C" stroke-linecap="round" stroke-linejoin="round"/>
<path id="Vector_12" d="M11.747 0.83844V12.7601" stroke="#13027C" stroke-linecap="round" stroke-linejoin="round"/>
<path id="Vector_13" d="M11.747 10.0141L14.2903 7.53405C14.7053 7.20739 15.2149 7.024 15.7428 7.01138C16.2708 6.99876 16.7886 7.15759 17.2187 7.46405L20.2695 10.0141" stroke="#13027C" stroke-linecap="round" stroke-linejoin="round"/>
<path id="Vector_14" d="M14.7254 4.7109C14.4952 4.7109 14.3087 4.52435 14.3087 4.29423C14.3087 4.06411 14.4952 3.87756 14.7254 3.87756" stroke="#13027C"/>
<path id="Vector_15" d="M14.7253 4.7109C14.9554 4.7109 15.142 4.52435 15.142 4.29423C15.142 4.06411 14.9554 3.87756 14.7253 3.87756" stroke="#13027C"/>
</g>
<defs>
<clipPath id="clip0_1267_1697">
<rect width="20" height="20" fill="white" transform="translate(0.894531)"/>
</clipPath>
</defs>
</svg>
