<svg xmlns="http://www.w3.org/2000/svg" width="18" height="18" viewBox="0 0 18 18" fill="none">
  <path d="M9.5625 5.625L7.3125 3.375L9.5625 1.125" stroke="#555555" stroke-linecap="round" stroke-linejoin="round"/>
  <path d="M2.27325 9.5625C2.25825 9.74775 2.25 9.9375 2.25 10.125C2.24935 10.6942 2.32092 11.2613 2.463 11.8125" stroke="#555555" stroke-linecap="round" stroke-linejoin="round"/>
  <path d="M3.82953 5.78613C3.46302 6.22171 3.1533 6.70205 2.90778 7.21563" stroke="#555555" stroke-linecap="round" stroke-linejoin="round"/>
  <path d="M3.84601 14.4839C3.96601 14.6259 4.09301 14.7639 4.22701 14.8979C4.62915 15.3008 5.08075 15.6511 5.57101 15.9404" stroke="#555555" stroke-linecap="round" stroke-linejoin="round"/>
  <path d="M8.4375 16.8517C8.62275 16.8667 8.8125 16.875 9 16.875C10.7902 16.875 12.5071 16.1638 13.773 14.898C15.0388 13.6321 15.75 11.9152 15.75 10.125C15.75 8.33479 15.0388 6.6179 13.773 5.35203C12.5071 4.08616 10.7902 3.375 9 3.375H7.3125" stroke="#555555" stroke-linecap="round" stroke-linejoin="round"/>
</svg>