<svg width="228" height="134" viewBox="0 0 228 134" fill="none" xmlns="http://www.w3.org/2000/svg">
<g clip-path="url(#clip0_584_1758)">
<rect x="87.6992" width="74" height="42" transform="rotate(45 87.6992 0)" fill="#CDDAEC"/>
<path d="M82.478 9.40737C83.2247 8.76626 84.0355 8.49096 84.9104 8.58146C85.7854 8.67197 86.6075 9.1019 87.3768 9.87123C87.8897 10.3841 88.2367 10.9196 88.4177 11.4778C88.6138 12.0359 88.6477 12.5677 88.5195 13.073C88.3988 13.5859 88.1386 14.0422 87.7389 14.442C87.2712 14.9096 86.7319 15.1774 86.121 15.2452C85.5176 15.3207 84.9519 15.1924 84.4239 14.8606L84.3674 14.9171C84.737 15.5281 84.8878 16.1541 84.8199 16.7952C84.752 17.4363 84.4315 18.0435 83.8583 18.6167C83.4283 19.0466 82.9419 19.337 82.3988 19.4879C81.8633 19.6312 81.3014 19.6048 80.7131 19.4087C80.1247 19.2126 79.5553 18.8392 79.0047 18.2886C78.2052 17.4891 77.7564 16.6255 77.6583 15.6978C77.5678 14.7625 77.8771 13.8801 78.5861 13.0504L79.5817 14.046C79.1819 14.5513 78.9971 15.1057 79.0273 15.7091C79.0575 16.3125 79.3365 16.8782 79.8645 17.4062C80.3925 17.9341 80.928 18.1981 81.4711 18.1981C82.0292 18.1981 82.527 17.9794 82.9645 17.5419C83.5302 16.9762 83.7489 16.3804 83.6207 15.7544C83.4925 15.1283 83.0474 14.4344 82.2857 13.6726L82.0254 13.4124L82.8853 12.5526L83.1568 12.8241C83.8583 13.5105 84.4956 13.9215 85.0688 14.0573C85.6496 14.1855 86.1738 14.0158 86.6414 13.5482C87.0412 13.1484 87.2297 12.6959 87.2071 12.1905C87.192 11.6927 86.9431 11.2025 86.4604 10.7198C85.9928 10.2521 85.495 9.99568 84.967 9.95042C84.439 9.90517 83.945 10.0598 83.4849 10.4143L82.478 9.40737Z" fill="#4A5A70"/>
<g clip-path="url(#clip1_584_1758)">
<path d="M91.058 33.0572C88.9482 35.167 87.7629 38.0285 87.7629 41.0122C87.7629 43.9959 88.9482 46.8574 91.058 48.9671C93.1678 51.0769 96.0293 52.2622 99.0129 52.2622C101.997 52.2622 104.858 51.0769 106.968 48.9671C109.078 46.8574 110.263 43.9959 110.263 41.0122C110.263 38.0285 109.078 35.167 106.968 33.0572C104.858 30.9475 101.997 29.7622 99.0129 29.7622C96.0293 29.7622 93.1678 30.9475 91.058 33.0572Z" fill="white"/>
<g clip-path="url(#clip2_584_1758)">
<path d="M96.4946 38.7576L95.434 37.6969" stroke="#4A5A70" stroke-linecap="round" stroke-linejoin="round"/>
<path d="M95.4339 39.8182L94.3732 39.8182" stroke="#4A5A70" stroke-linecap="round" stroke-linejoin="round"/>
<path d="M97.5553 37.6969V36.6362" stroke="#4A5A70" stroke-linecap="round" stroke-linejoin="round"/>
<path d="M101.268 43.5305L102.328 44.5912" stroke="#4A5A70" stroke-linecap="round" stroke-linejoin="round"/>
<path d="M100.207 44.5912L100.207 45.6518" stroke="#4A5A70" stroke-linecap="round" stroke-linejoin="round"/>
<path d="M102.328 42.4698H103.389" stroke="#4A5A70" stroke-linecap="round" stroke-linejoin="round"/>
<path d="M98.6159 38.7575L100.207 37.1665C100.559 36.8164 101.036 36.6198 101.533 36.6198C102.03 36.6198 102.506 36.8164 102.859 37.1665C103.209 37.5189 103.405 37.9955 103.405 38.4923C103.405 38.9892 103.209 39.4658 102.859 39.8182L101.002 41.6743C100.744 41.9313 100.416 42.1078 100.06 42.1821C99.7028 42.2565 99.332 42.2256 98.9924 42.0933C98.7517 41.9998 98.5331 41.8571 98.3507 41.6743" stroke="#4A5A70" stroke-linecap="round" stroke-linejoin="round"/>
<path d="M99.4114 43.2653L97.8204 44.8563C97.4681 45.2067 96.9915 45.4034 96.4946 45.4034C95.9977 45.4034 95.521 45.2067 95.1688 44.8563C94.8185 44.504 94.6218 44.0273 94.6218 43.5305C94.6218 43.0336 94.8185 42.557 95.1688 42.2047L96.7597 40.6137C97.1122 40.2635 97.5888 40.067 98.0856 40.067C98.5824 40.067 99.059 40.2635 99.4114 40.6137" stroke="#4A5A70" stroke-linecap="round" stroke-linejoin="round"/>
</g>
</g>
</g>
<rect x="87.6992" y="0.707107" width="73" height="41" transform="rotate(45 87.6992 0.707107)" stroke="#4A5A70"/>
<g clip-path="url(#clip3_584_1758)">
<rect x="145.699" width="74" height="42" transform="rotate(45 145.699 0)" fill="#CDDAEC"/>
<path d="M146.882 13.4803L142.91 9.50919L140.331 12.0887C140.746 12.0208 141.198 12.0812 141.689 12.2697C142.186 12.4508 142.631 12.7374 143.024 13.1296C143.65 13.7556 144.027 14.3967 144.155 15.0529C144.291 15.7016 144.234 16.3163 143.985 16.897C143.751 17.4778 143.404 17.9982 142.944 18.4583C142.401 19.0014 141.813 19.3861 141.179 19.6123C140.546 19.8386 139.893 19.865 139.222 19.6915C138.558 19.5256 137.917 19.1334 137.299 18.5149C136.507 17.7229 136.069 16.8782 135.986 15.9806C135.903 15.0831 136.149 14.2421 136.722 13.4577L137.729 14.4646C137.397 14.9926 137.269 15.5356 137.344 16.0938C137.42 16.6519 137.699 17.1723 138.181 17.6551C138.777 18.2509 139.403 18.5224 140.059 18.4696C140.723 18.4093 141.349 18.085 141.937 17.4967C142.526 16.9084 142.827 16.305 142.843 15.6865C142.865 15.0604 142.582 14.4533 141.994 13.865C141.594 13.4652 141.145 13.2125 140.648 13.1069C140.165 13.0014 139.69 13.0466 139.222 13.2427L138.249 12.2697L142.865 7.65374L147.787 12.5752L146.882 13.4803Z" fill="#4A5A70"/>
<g clip-path="url(#clip4_584_1758)">
<path d="M149.058 33.0572C146.948 35.167 145.763 38.0285 145.763 41.0122C145.763 43.9959 146.948 46.8574 149.058 48.9671C151.168 51.0769 154.029 52.2622 157.013 52.2622C159.997 52.2622 162.858 51.0769 164.968 48.9671C167.078 46.8574 168.263 43.9959 168.263 41.0122C168.263 38.0285 167.078 35.167 164.968 33.0572C162.858 30.9475 159.997 29.7622 157.013 29.7622C154.029 29.7622 151.168 30.9475 149.058 33.0572Z" fill="white"/>
<g clip-path="url(#clip5_584_1758)">
<path d="M154.495 38.7576L153.434 37.6969" stroke="#4A5A70" stroke-linecap="round" stroke-linejoin="round"/>
<path d="M153.434 39.8182L152.373 39.8182" stroke="#4A5A70" stroke-linecap="round" stroke-linejoin="round"/>
<path d="M155.555 37.6969V36.6362" stroke="#4A5A70" stroke-linecap="round" stroke-linejoin="round"/>
<path d="M159.268 43.5305L160.328 44.5912" stroke="#4A5A70" stroke-linecap="round" stroke-linejoin="round"/>
<path d="M158.207 44.5912L158.207 45.6518" stroke="#4A5A70" stroke-linecap="round" stroke-linejoin="round"/>
<path d="M160.328 42.4698H161.389" stroke="#4A5A70" stroke-linecap="round" stroke-linejoin="round"/>
<path d="M156.616 38.7575L158.207 37.1665C158.559 36.8164 159.036 36.6198 159.533 36.6198C160.03 36.6198 160.506 36.8164 160.859 37.1665C161.209 37.5189 161.405 37.9955 161.405 38.4923C161.405 38.9892 161.209 39.4658 160.859 39.8182L159.002 41.6743C158.744 41.9313 158.416 42.1078 158.06 42.1821C157.703 42.2565 157.332 42.2256 156.992 42.0933C156.752 41.9998 156.533 41.8571 156.351 41.6743" stroke="#4A5A70" stroke-linecap="round" stroke-linejoin="round"/>
<path d="M157.411 43.2653L155.82 44.8563C155.468 45.2067 154.991 45.4034 154.495 45.4034C153.998 45.4034 153.521 45.2067 153.169 44.8563C152.818 44.504 152.622 44.0273 152.622 43.5305C152.622 43.0336 152.818 42.557 153.169 42.2047L154.76 40.6137C155.112 40.2635 155.589 40.067 156.086 40.067C156.582 40.067 157.059 40.2635 157.411 40.6137" stroke="#4A5A70" stroke-linecap="round" stroke-linejoin="round"/>
</g>
</g>
</g>
<rect x="145.699" y="0.707107" width="73" height="41" transform="rotate(45 145.699 0.707107)" stroke="#4A5A70"/>
<g clip-path="url(#clip6_584_1758)">
<rect x="28.998" y="103.326" width="74" height="42" transform="rotate(-45 28.998 103.326)" fill="#CDDAEC"/>
<path d="M43.5984 113.944C43.787 112.217 43.9076 110.837 43.9604 109.803C44.0057 108.762 43.9454 107.789 43.7794 106.884C43.6135 105.964 43.2703 105.244 42.7499 104.723C42.2596 104.233 41.7543 103.969 41.2338 103.931C40.7134 103.879 40.1892 104.116 39.6612 104.644C39.1483 105.157 38.9108 105.719 38.9485 106.33C38.9862 106.926 39.2615 107.503 39.7744 108.061L38.7788 109.057C37.9642 108.182 37.5682 107.273 37.5908 106.33C37.6135 105.387 38.0057 104.535 38.7675 103.773C39.5443 102.996 40.374 102.596 41.2565 102.574C42.1465 102.544 42.9686 102.906 43.7229 103.66C44.3489 104.286 44.7713 105.085 44.99 106.058C45.2087 107.016 45.3068 107.959 45.2841 108.887C45.254 109.807 45.1672 110.935 45.0239 112.27L48.9158 108.378L49.7757 109.238L44.3338 114.679L43.5984 113.944Z" fill="#4A5A70"/>
<g clip-path="url(#clip7_584_1758)">
<path d="M62.0553 99.9674C64.1651 102.077 67.0266 103.262 70.0102 103.262C72.9939 103.262 75.8554 102.077 77.9652 99.9674C80.075 97.8576 81.2602 94.9961 81.2602 92.0125C81.2602 89.0288 80.075 86.1673 77.9652 84.0575C75.8554 81.9477 72.9939 80.7625 70.0102 80.7625C67.0266 80.7625 64.1651 81.9477 62.0553 84.0575C59.9455 86.1673 58.7602 89.0288 58.7602 92.0125C58.7602 94.9961 59.9455 97.8576 62.0553 99.9674Z" fill="white"/>
<g clip-path="url(#clip8_584_1758)">
<path d="M67.7556 94.5308L66.6949 95.5914" stroke="#4A5A70" stroke-linecap="round" stroke-linejoin="round"/>
<path d="M68.8162 95.5915L68.8162 96.6522" stroke="#4A5A70" stroke-linecap="round" stroke-linejoin="round"/>
<path d="M66.6949 93.4701H65.6343" stroke="#4A5A70" stroke-linecap="round" stroke-linejoin="round"/>
<path d="M72.5286 89.7578L73.5892 88.6972" stroke="#4A5A70" stroke-linecap="round" stroke-linejoin="round"/>
<path d="M73.5892 90.8185L74.6499 90.8185" stroke="#4A5A70" stroke-linecap="round" stroke-linejoin="round"/>
<path d="M71.4678 88.6972V87.6365" stroke="#4A5A70" stroke-linecap="round" stroke-linejoin="round"/>
<path d="M67.7556 92.4095L66.1646 90.8185C65.8144 90.4661 65.6179 89.9895 65.6179 89.4927C65.6179 88.9959 65.8144 88.5193 66.1646 88.1669C66.5169 87.8166 66.9936 87.6199 67.4904 87.6199C67.9872 87.6199 68.4639 87.8166 68.8162 88.1669L70.6724 90.023C70.9294 90.2814 71.1058 90.609 71.1802 90.9658C71.2546 91.3226 71.2237 91.6934 71.0913 92.033C70.9979 92.2737 70.8552 92.4923 70.6724 92.6747" stroke="#4A5A70" stroke-linecap="round" stroke-linejoin="round"/>
<path d="M72.2634 91.614L73.8544 93.205C74.2048 93.5573 74.4015 94.0339 74.4015 94.5308C74.4015 95.0277 74.2048 95.5044 73.8544 95.8566C73.502 96.2069 73.0254 96.4035 72.5285 96.4035C72.0317 96.4035 71.555 96.2069 71.2027 95.8566L69.6117 94.2656C69.2615 93.9132 69.065 93.4366 69.065 92.9398C69.065 92.443 69.2615 91.9664 69.6117 91.614" stroke="#4A5A70" stroke-linecap="round" stroke-linejoin="round"/>
</g>
</g>
</g>
<rect x="29.7052" y="103.326" width="73" height="41" transform="rotate(-45 29.7052 103.326)" stroke="#4A5A70"/>
<g clip-path="url(#clip9_584_1758)">
<rect x="87" y="103.326" width="74" height="42" transform="rotate(-45 87 103.326)" fill="#CDDAEC"/>
<path d="M100.48 113.073L99.6997 112.292L98.1723 102.823L99.4055 101.589L104.791 106.975L105.922 105.843L106.816 106.737L105.685 107.869L107.506 109.69L106.488 110.708L104.666 108.887L100.48 113.073ZM99.5073 103.637L100.774 110.991L103.818 107.948L99.5073 103.637Z" fill="#4A5A70"/>
<g clip-path="url(#clip10_584_1758)">
<path d="M120.057 99.9674C122.167 102.077 125.029 103.262 128.012 103.262C130.996 103.262 133.857 102.077 135.967 99.9674C138.077 97.8576 139.262 94.9961 139.262 92.0125C139.262 89.0288 138.077 86.1673 135.967 84.0575C133.857 81.9477 130.996 80.7625 128.012 80.7625C125.029 80.7625 122.167 81.9477 120.057 84.0575C117.947 86.1673 116.762 89.0288 116.762 92.0125C116.762 94.9961 117.947 97.8576 120.057 99.9674Z" fill="white"/>
<g clip-path="url(#clip11_584_1758)">
<path d="M125.758 94.5308L124.697 95.5914" stroke="#4A5A70" stroke-linecap="round" stroke-linejoin="round"/>
<path d="M126.818 95.5915L126.818 96.6522" stroke="#4A5A70" stroke-linecap="round" stroke-linejoin="round"/>
<path d="M124.697 93.4701H123.636" stroke="#4A5A70" stroke-linecap="round" stroke-linejoin="round"/>
<path d="M130.531 89.7578L131.591 88.6972" stroke="#4A5A70" stroke-linecap="round" stroke-linejoin="round"/>
<path d="M131.591 90.8185L132.652 90.8185" stroke="#4A5A70" stroke-linecap="round" stroke-linejoin="round"/>
<path d="M129.47 88.6972V87.6365" stroke="#4A5A70" stroke-linecap="round" stroke-linejoin="round"/>
<path d="M125.758 92.4095L124.167 90.8185C123.816 90.4661 123.62 89.9895 123.62 89.4927C123.62 88.9959 123.816 88.5193 124.167 88.1669C124.519 87.8166 124.996 87.6199 125.492 87.6199C125.989 87.6199 126.466 87.8166 126.818 88.1669L128.674 90.023C128.931 90.2814 129.108 90.609 129.182 90.9658C129.257 91.3226 129.226 91.6934 129.093 92.033C129 92.2737 128.857 92.4923 128.674 92.6747" stroke="#4A5A70" stroke-linecap="round" stroke-linejoin="round"/>
<path d="M130.265 91.614L131.856 93.205C132.207 93.5573 132.403 94.0339 132.403 94.5308C132.403 95.0277 132.207 95.5044 131.856 95.8566C131.504 96.2069 131.027 96.4035 130.53 96.4035C130.034 96.4035 129.557 96.2069 129.205 95.8566L127.614 94.2656C127.263 93.9132 127.067 93.4366 127.067 92.9398C127.067 92.443 127.263 91.9664 127.614 91.614" stroke="#4A5A70" stroke-linecap="round" stroke-linejoin="round"/>
</g>
</g>
</g>
<rect x="87.7071" y="103.326" width="73" height="41" transform="rotate(-45 87.7071 103.326)" stroke="#4A5A70"/>
<g clip-path="url(#clip12_584_1758)">
<rect x="145" y="103.326" width="74" height="42" transform="rotate(-45 145 103.326)" fill="#CDDAEC"/>
<path d="M158.876 103.852C157.873 103.181 156.938 103.279 156.07 104.146C155.399 104.818 155.158 105.579 155.346 106.432C155.527 107.276 156.214 108.287 157.405 109.464C157.187 108.898 157.168 108.306 157.349 107.688C157.53 107.054 157.869 106.488 158.367 105.991C159.144 105.214 160.004 104.837 160.947 104.859C161.897 104.874 162.798 105.308 163.651 106.16C164.164 106.673 164.522 107.235 164.725 107.846C164.937 108.449 164.959 109.075 164.793 109.724C164.635 110.365 164.269 110.972 163.696 111.546C162.919 112.322 162.138 112.756 161.354 112.847C160.57 112.937 159.785 112.764 159.001 112.326C158.216 111.889 157.375 111.221 156.478 110.324C153.71 107.556 153.291 105.206 155.222 103.275C155.961 102.536 156.742 102.155 157.564 102.133C158.386 102.11 159.14 102.366 159.827 102.902L158.876 103.852ZM159.023 107.077C158.699 107.401 158.461 107.774 158.311 108.197C158.152 108.612 158.118 109.045 158.209 109.498C158.299 109.935 158.537 110.346 158.922 110.731C159.495 111.304 160.128 111.606 160.822 111.636C161.509 111.659 162.161 111.361 162.78 110.742C163.307 110.214 163.564 109.634 163.549 109C163.534 108.351 163.247 107.748 162.689 107.19C162.101 106.601 161.49 106.292 160.856 106.262C160.215 106.224 159.604 106.496 159.023 107.077Z" fill="#4A5A70"/>
<g clip-path="url(#clip13_584_1758)">
<path d="M178.057 99.9674C180.167 102.077 183.029 103.262 186.012 103.262C188.996 103.262 191.857 102.077 193.967 99.9674C196.077 97.8576 197.262 94.9961 197.262 92.0125C197.262 89.0288 196.077 86.1673 193.967 84.0575C191.857 81.9477 188.996 80.7625 186.012 80.7625C183.029 80.7625 180.167 81.9477 178.057 84.0575C175.947 86.1673 174.762 89.0288 174.762 92.0125C174.762 94.9961 175.947 97.8576 178.057 99.9674Z" fill="white"/>
<g clip-path="url(#clip14_584_1758)">
<path d="M183.758 94.5308L182.697 95.5914" stroke="#4A5A70" stroke-linecap="round" stroke-linejoin="round"/>
<path d="M184.818 95.5915L184.818 96.6522" stroke="#4A5A70" stroke-linecap="round" stroke-linejoin="round"/>
<path d="M182.697 93.4701H181.636" stroke="#4A5A70" stroke-linecap="round" stroke-linejoin="round"/>
<path d="M188.531 89.7578L189.591 88.6972" stroke="#4A5A70" stroke-linecap="round" stroke-linejoin="round"/>
<path d="M189.591 90.8185L190.652 90.8185" stroke="#4A5A70" stroke-linecap="round" stroke-linejoin="round"/>
<path d="M187.47 88.6972V87.6365" stroke="#4A5A70" stroke-linecap="round" stroke-linejoin="round"/>
<path d="M183.758 92.4095L182.167 90.8185C181.816 90.4661 181.62 89.9895 181.62 89.4927C181.62 88.9959 181.816 88.5193 182.167 88.1669C182.519 87.8166 182.996 87.6199 183.492 87.6199C183.989 87.6199 184.466 87.8166 184.818 88.1669L186.674 90.023C186.931 90.2814 187.108 90.609 187.182 90.9658C187.257 91.3226 187.226 91.6934 187.093 92.033C187 92.2737 186.857 92.4923 186.674 92.6747" stroke="#4A5A70" stroke-linecap="round" stroke-linejoin="round"/>
<path d="M188.265 91.614L189.856 93.205C190.207 93.5573 190.403 94.0339 190.403 94.5308C190.403 95.0277 190.207 95.5044 189.856 95.8566C189.504 96.2069 189.027 96.4035 188.53 96.4035C188.034 96.4035 187.557 96.2069 187.205 95.8566L185.614 94.2656C185.263 93.9132 185.067 93.4366 185.067 92.9398C185.067 92.443 185.263 91.9664 185.614 91.614" stroke="#4A5A70" stroke-linecap="round" stroke-linejoin="round"/>
</g>
</g>
</g>
<rect x="145.707" y="103.326" width="73" height="41" transform="rotate(-45 145.707 103.326)" stroke="#4A5A70"/>
<g clip-path="url(#clip15_584_1758)">
<rect x="29.6985" y="0.000488281" width="74" height="42" transform="rotate(45 29.6985 0.000488281)" fill="#CDDAEC"/>
<path d="M27.4696 8.74593L28.4087 7.80689L30.5356 9.93387L22.3558 18.1137L21.315 17.0728L28.5557 9.83204L27.4696 8.74593Z" fill="#4A5A70"/>
<g clip-path="url(#clip16_584_1758)">
<path d="M33.0573 33.0577C30.9475 35.1675 29.7622 38.029 29.7622 41.0127C29.7622 43.9964 30.9475 46.8579 33.0573 48.9676C35.167 51.0774 38.0285 52.2627 41.0122 52.2627C43.9959 52.2627 46.8574 51.0774 48.9672 48.9676C51.0769 46.8579 52.2622 43.9964 52.2622 41.0127C52.2622 38.029 51.0769 35.1675 48.9672 33.0577C46.8574 30.948 43.9959 29.7627 41.0122 29.7627C38.0285 29.7627 35.167 30.948 33.0573 33.0577Z" fill="white"/>
<g clip-path="url(#clip17_584_1758)">
<path d="M38.4939 38.758L37.4332 37.6974" stroke="#4A5A70" stroke-linecap="round" stroke-linejoin="round"/>
<path d="M37.4332 39.8187L36.3725 39.8187" stroke="#4A5A70" stroke-linecap="round" stroke-linejoin="round"/>
<path d="M39.5546 37.6974V36.6367" stroke="#4A5A70" stroke-linecap="round" stroke-linejoin="round"/>
<path d="M43.2668 43.531L44.3275 44.5917" stroke="#4A5A70" stroke-linecap="round" stroke-linejoin="round"/>
<path d="M42.2062 44.5917L42.2062 45.6523" stroke="#4A5A70" stroke-linecap="round" stroke-linejoin="round"/>
<path d="M44.3275 42.4703H45.3881" stroke="#4A5A70" stroke-linecap="round" stroke-linejoin="round"/>
<path d="M40.6152 38.758L42.2062 37.167C42.5586 36.8168 43.0352 36.6203 43.532 36.6203C44.0288 36.6203 44.5054 36.8168 44.8578 37.167C45.2081 37.5194 45.4047 37.996 45.4047 38.4928C45.4047 38.9897 45.2081 39.4663 44.8578 39.8187L43.0017 41.6748C42.7432 41.9318 42.4157 42.1082 42.0589 42.1826C41.702 42.257 41.3313 42.2261 40.9917 42.0938C40.751 42.0003 40.5324 41.8576 40.35 41.6748" stroke="#4A5A70" stroke-linecap="round" stroke-linejoin="round"/>
<path d="M41.4107 43.2658L39.8197 44.8568C39.4674 45.2072 38.9907 45.4039 38.4938 45.4039C37.997 45.4039 37.5203 45.2072 37.168 44.8568C36.8177 44.5045 36.6211 44.0278 36.6211 43.531C36.6211 43.0341 36.8177 42.5575 37.168 42.2051L38.759 40.6142C39.1114 40.264 39.588 40.0675 40.0848 40.0675C40.5816 40.0675 41.0583 40.264 41.4107 40.6142" stroke="#4A5A70" stroke-linecap="round" stroke-linejoin="round"/>
</g>
</g>
</g>
<rect x="29.6985" y="0.707595" width="73" height="41" transform="rotate(45 29.6985 0.707595)" stroke="#4A5A70"/>
<defs>
<clipPath id="clip0_584_1758">
<rect x="87.6992" width="74" height="42" transform="rotate(45 87.6992 0)" fill="white"/>
</clipPath>
<clipPath id="clip1_584_1758">
<rect width="24" height="24" fill="white" transform="translate(99.0129 24.0416) rotate(45)"/>
</clipPath>
<clipPath id="clip2_584_1758">
<rect width="12" height="12" fill="white" transform="translate(99.0129 32.5269) rotate(45)"/>
</clipPath>
<clipPath id="clip3_584_1758">
<rect x="145.699" width="74" height="42" transform="rotate(45 145.699 0)" fill="white"/>
</clipPath>
<clipPath id="clip4_584_1758">
<rect width="24" height="24" fill="white" transform="translate(157.013 24.0416) rotate(45)"/>
</clipPath>
<clipPath id="clip5_584_1758">
<rect width="12" height="12" fill="white" transform="translate(157.013 32.5269) rotate(45)"/>
</clipPath>
<clipPath id="clip6_584_1758">
<rect x="28.998" y="103.326" width="74" height="42" transform="rotate(-45 28.998 103.326)" fill="white"/>
</clipPath>
<clipPath id="clip7_584_1758">
<rect width="24" height="24" fill="white" transform="translate(53.0397 92.0125) rotate(-45)"/>
</clipPath>
<clipPath id="clip8_584_1758">
<rect width="12" height="12" fill="white" transform="translate(61.5249 92.0125) rotate(-45)"/>
</clipPath>
<clipPath id="clip9_584_1758">
<rect x="87" y="103.326" width="74" height="42" transform="rotate(-45 87 103.326)" fill="white"/>
</clipPath>
<clipPath id="clip10_584_1758">
<rect width="24" height="24" fill="white" transform="translate(111.042 92.0125) rotate(-45)"/>
</clipPath>
<clipPath id="clip11_584_1758">
<rect width="12" height="12" fill="white" transform="translate(119.527 92.0125) rotate(-45)"/>
</clipPath>
<clipPath id="clip12_584_1758">
<rect x="145" y="103.326" width="74" height="42" transform="rotate(-45 145 103.326)" fill="white"/>
</clipPath>
<clipPath id="clip13_584_1758">
<rect width="24" height="24" fill="white" transform="translate(169.042 92.0125) rotate(-45)"/>
</clipPath>
<clipPath id="clip14_584_1758">
<rect width="12" height="12" fill="white" transform="translate(177.527 92.0125) rotate(-45)"/>
</clipPath>
<clipPath id="clip15_584_1758">
<rect x="29.6985" y="0.000488281" width="74" height="42" transform="rotate(45 29.6985 0.000488281)" fill="white"/>
</clipPath>
<clipPath id="clip16_584_1758">
<rect width="24" height="24" fill="white" transform="translate(41.0122 24.0421) rotate(45)"/>
</clipPath>
<clipPath id="clip17_584_1758">
<rect width="12" height="12" fill="white" transform="translate(41.0122 32.5273) rotate(45)"/>
</clipPath>
</defs>
</svg>
