<svg width="329" height="16" viewBox="0 0 329 16" fill="none" xmlns="http://www.w3.org/2000/svg">
<rect x="90.3649" y="8.74274" width="29.829" height="6.48616" rx="3.24308" fill="#FFB156"/>
<rect x="216.164" y="8.74274" width="23.3444" height="6.48616" rx="3.24308" fill="#FFB156"/>
<rect x="30.7079" y="8.74274" width="29.829" height="6.48616" rx="3.24308" fill="#4588B1"/>
<rect x="150.023" y="8.74255" width="29.829" height="6.48616" rx="3.24308" fill="#4588B1"/>
<rect opacity="0.1" x="0.878891" y="8.74231" width="29.829" height="6.48616" fill="#4A5A70"/>
<line opacity="0.1" y1="-0.324268" x2="7.5636" y2="-0.324268" transform="matrix(0.514403 -0.857549 0.857437 0.514589 0.878876 15.2313)" stroke="#4A5A70" stroke-width="0.648536"/>
<line opacity="0.1" y1="-0.324268" x2="7.5636" y2="-0.324268" transform="matrix(0.514403 -0.857549 0.857437 0.514589 5.4189 15.2313)" stroke="#4A5A70" stroke-width="0.648536"/>
<line opacity="0.1" y1="-0.324268" x2="7.5636" y2="-0.324268" transform="matrix(0.514403 -0.857549 0.857437 0.514589 9.95701 15.2313)" stroke="#4A5A70" stroke-width="0.648536"/>
<line opacity="0.1" y1="-0.324268" x2="7.5636" y2="-0.324268" transform="matrix(0.514403 -0.857549 0.857437 0.514589 13.8478 15.2313)" stroke="#4A5A70" stroke-width="0.648536"/>
<line opacity="0.1" y1="-0.324268" x2="7.5636" y2="-0.324268" transform="matrix(0.514403 -0.857549 0.857437 0.514589 17.7385 15.2313)" stroke="#4A5A70" stroke-width="0.648536"/>
<line opacity="0.1" y1="-0.324268" x2="7.5636" y2="-0.324268" transform="matrix(0.514403 -0.857549 0.857437 0.514589 22.2776 15.2313)" stroke="#4A5A70" stroke-width="0.648536"/>
<line opacity="0.1" y1="-0.324268" x2="7.5636" y2="-0.324268" transform="matrix(0.514403 -0.857549 0.857437 0.514589 26.8167 15.2313)" stroke="#4A5A70" stroke-width="0.648536"/>
<rect opacity="0.1" x="60.536" y="8.74255" width="29.829" height="6.48616" fill="#4A5A70"/>
<line opacity="0.1" y1="-0.324268" x2="7.5636" y2="-0.324268" transform="matrix(0.514403 -0.857549 0.857437 0.514589 60.5359 15.2315)" stroke="#4A5A70" stroke-width="0.648536"/>
<line opacity="0.1" y1="-0.324268" x2="7.5636" y2="-0.324268" transform="matrix(0.514403 -0.857549 0.857437 0.514589 65.0759 15.2315)" stroke="#4A5A70" stroke-width="0.648536"/>
<line opacity="0.1" y1="-0.324268" x2="7.5636" y2="-0.324268" transform="matrix(0.514403 -0.857549 0.857437 0.514589 69.614 15.2315)" stroke="#4A5A70" stroke-width="0.648536"/>
<line opacity="0.1" y1="-0.324268" x2="7.5636" y2="-0.324268" transform="matrix(0.514403 -0.857549 0.857437 0.514589 73.5048 15.2315)" stroke="#4A5A70" stroke-width="0.648536"/>
<line opacity="0.1" y1="-0.324268" x2="7.5636" y2="-0.324268" transform="matrix(0.514403 -0.857549 0.857437 0.514589 77.3956 15.2315)" stroke="#4A5A70" stroke-width="0.648536"/>
<line opacity="0.1" y1="-0.324268" x2="7.5636" y2="-0.324268" transform="matrix(0.514403 -0.857549 0.857437 0.514589 81.9346 15.2315)" stroke="#4A5A70" stroke-width="0.648536"/>
<line opacity="0.1" y1="-0.324268" x2="7.5636" y2="-0.324268" transform="matrix(0.514403 -0.857549 0.857437 0.514589 86.4737 15.2315)" stroke="#4A5A70" stroke-width="0.648536"/>
<rect opacity="0.1" x="120.195" y="8.7406" width="29.829" height="6.48616" fill="#4A5A70"/>
<line opacity="0.1" y1="-0.324268" x2="7.5636" y2="-0.324268" transform="matrix(0.514403 -0.857549 0.857437 0.514589 120.195 15.2296)" stroke="#4A5A70" stroke-width="0.648536"/>
<line opacity="0.1" y1="-0.324268" x2="7.5636" y2="-0.324268" transform="matrix(0.514403 -0.857549 0.857437 0.514589 124.735 15.2296)" stroke="#4A5A70" stroke-width="0.648536"/>
<line opacity="0.1" y1="-0.324268" x2="7.5636" y2="-0.324268" transform="matrix(0.514403 -0.857549 0.857437 0.514589 129.273 15.2296)" stroke="#4A5A70" stroke-width="0.648536"/>
<line opacity="0.1" y1="-0.324268" x2="7.5636" y2="-0.324268" transform="matrix(0.514403 -0.857549 0.857437 0.514589 133.164 15.2296)" stroke="#4A5A70" stroke-width="0.648536"/>
<line opacity="0.1" y1="-0.324268" x2="7.5636" y2="-0.324268" transform="matrix(0.514403 -0.857549 0.857437 0.514589 137.055 15.2296)" stroke="#4A5A70" stroke-width="0.648536"/>
<line opacity="0.1" y1="-0.324268" x2="7.5636" y2="-0.324268" transform="matrix(0.514403 -0.857549 0.857437 0.514589 141.594 15.2296)" stroke="#4A5A70" stroke-width="0.648536"/>
<line opacity="0.1" y1="-0.324268" x2="7.5636" y2="-0.324268" transform="matrix(0.514403 -0.857549 0.857437 0.514589 146.133 15.2296)" stroke="#4A5A70" stroke-width="0.648536"/>
<rect opacity="0.1" x="179.851" y="8.74274" width="36.3136" height="6.48616" fill="#4A5A70"/>
<line opacity="0.1" y1="-0.324262" x2="8.03151" y2="-0.324262" transform="matrix(0.589746 -0.807589 0.896932 0.442168 179.851 15.2315)" stroke="#4A5A70" stroke-width="0.648524"/>
<line opacity="0.1" y1="-0.324262" x2="8.03151" y2="-0.324262" transform="matrix(0.589746 -0.807589 0.896932 0.442168 185.376 15.2315)" stroke="#4A5A70" stroke-width="0.648524"/>
<line opacity="0.1" y1="-0.324262" x2="8.03151" y2="-0.324262" transform="matrix(0.589746 -0.807589 0.896932 0.442168 190.903 15.2315)" stroke="#4A5A70" stroke-width="0.648524"/>
<line opacity="0.1" y1="-0.324262" x2="8.03151" y2="-0.324262" transform="matrix(0.589746 -0.807589 0.896932 0.442168 195.638 15.2315)" stroke="#4A5A70" stroke-width="0.648524"/>
<line opacity="0.1" y1="-0.324262" x2="8.03151" y2="-0.324262" transform="matrix(0.589746 -0.807589 0.896932 0.442168 200.375 15.2315)" stroke="#4A5A70" stroke-width="0.648524"/>
<line opacity="0.1" y1="-0.324262" x2="8.03151" y2="-0.324262" transform="matrix(0.589746 -0.807589 0.896932 0.442168 205.901 15.2315)" stroke="#4A5A70" stroke-width="0.648524"/>
<line opacity="0.1" y1="-0.324262" x2="8.03151" y2="-0.324262" transform="matrix(0.589746 -0.807589 0.896932 0.442168 211.429 15.2315)" stroke="#4A5A70" stroke-width="0.648524"/>
<rect opacity="0.1" x="239.511" y="8.74292" width="29.829" height="6.48616" fill="#4A5A70"/>
<line opacity="0.1" y1="-0.324268" x2="7.5636" y2="-0.324268" transform="matrix(0.514403 -0.857549 0.857437 0.514589 239.511 15.2317)" stroke="#4A5A70" stroke-width="0.648536"/>
<line opacity="0.1" y1="-0.324268" x2="7.5636" y2="-0.324268" transform="matrix(0.514403 -0.857549 0.857437 0.514589 244.051 15.2317)" stroke="#4A5A70" stroke-width="0.648536"/>
<line opacity="0.1" y1="-0.324268" x2="7.5636" y2="-0.324268" transform="matrix(0.514403 -0.857549 0.857437 0.514589 248.589 15.2317)" stroke="#4A5A70" stroke-width="0.648536"/>
<line opacity="0.1" y1="-0.324268" x2="7.5636" y2="-0.324268" transform="matrix(0.514403 -0.857549 0.857437 0.514589 252.48 15.2317)" stroke="#4A5A70" stroke-width="0.648536"/>
<line opacity="0.1" y1="-0.324268" x2="7.5636" y2="-0.324268" transform="matrix(0.514403 -0.857549 0.857437 0.514589 256.371 15.2317)" stroke="#4A5A70" stroke-width="0.648536"/>
<line opacity="0.1" y1="-0.324268" x2="7.5636" y2="-0.324268" transform="matrix(0.514403 -0.857549 0.857437 0.514589 260.91 15.2317)" stroke="#4A5A70" stroke-width="0.648536"/>
<line opacity="0.1" y1="-0.324268" x2="7.5636" y2="-0.324268" transform="matrix(0.514403 -0.857549 0.857437 0.514589 265.449 15.2317)" stroke="#4A5A70" stroke-width="0.648536"/>
<rect opacity="0.1" x="269.338" y="8.74274" width="29.829" height="6.48616" fill="#4A5A70"/>
<line opacity="0.1" y1="-0.324268" x2="7.5636" y2="-0.324268" transform="matrix(0.514403 -0.857549 0.857437 0.514589 269.338 15.2317)" stroke="#4A5A70" stroke-width="0.648536"/>
<line opacity="0.1" y1="-0.324268" x2="7.5636" y2="-0.324268" transform="matrix(0.514403 -0.857549 0.857437 0.514589 273.879 15.2317)" stroke="#4A5A70" stroke-width="0.648536"/>
<line opacity="0.1" y1="-0.324268" x2="7.5636" y2="-0.324268" transform="matrix(0.514403 -0.857549 0.857437 0.514589 278.417 15.2317)" stroke="#4A5A70" stroke-width="0.648536"/>
<line opacity="0.1" y1="-0.324268" x2="7.5636" y2="-0.324268" transform="matrix(0.514403 -0.857549 0.857437 0.514589 282.307 15.2317)" stroke="#4A5A70" stroke-width="0.648536"/>
<line opacity="0.1" y1="-0.324268" x2="7.5636" y2="-0.324268" transform="matrix(0.514403 -0.857549 0.857437 0.514589 286.198 15.2317)" stroke="#4A5A70" stroke-width="0.648536"/>
<line opacity="0.1" y1="-0.324268" x2="7.5636" y2="-0.324268" transform="matrix(0.514403 -0.857549 0.857437 0.514589 290.737 15.2317)" stroke="#4A5A70" stroke-width="0.648536"/>
<line opacity="0.1" y1="-0.324268" x2="7.5636" y2="-0.324268" transform="matrix(0.514403 -0.857549 0.857437 0.514589 295.276 15.2317)" stroke="#4A5A70" stroke-width="0.648536"/>
<rect opacity="0.1" x="299.171" y="8.74292" width="29.829" height="6.48616" fill="#4A5A70"/>
<line opacity="0.1" y1="-0.324268" x2="7.5636" y2="-0.324268" transform="matrix(0.514403 -0.857549 0.857437 0.514589 299.171 15.2317)" stroke="#4A5A70" stroke-width="0.648536"/>
<line opacity="0.1" y1="-0.324268" x2="7.5636" y2="-0.324268" transform="matrix(0.514403 -0.857549 0.857437 0.514589 303.711 15.2317)" stroke="#4A5A70" stroke-width="0.648536"/>
<line opacity="0.1" y1="-0.324268" x2="7.5636" y2="-0.324268" transform="matrix(0.514403 -0.857549 0.857437 0.514589 308.248 15.2317)" stroke="#4A5A70" stroke-width="0.648536"/>
<line opacity="0.1" y1="-0.324268" x2="7.5636" y2="-0.324268" transform="matrix(0.514403 -0.857549 0.857437 0.514589 312.14 15.2317)" stroke="#4A5A70" stroke-width="0.648536"/>
<line opacity="0.1" y1="-0.324268" x2="7.5636" y2="-0.324268" transform="matrix(0.514403 -0.857549 0.857437 0.514589 316.031 15.2317)" stroke="#4A5A70" stroke-width="0.648536"/>
<line opacity="0.1" y1="-0.324268" x2="7.5636" y2="-0.324268" transform="matrix(0.514403 -0.857549 0.857437 0.514589 320.57 15.2317)" stroke="#4A5A70" stroke-width="0.648536"/>
<line opacity="0.1" y1="-0.324268" x2="7.5636" y2="-0.324268" transform="matrix(0.514403 -0.857549 0.857437 0.514589 325.109 15.2317)" stroke="#4A5A70" stroke-width="0.648536"/>
<line x1="1.2022" y1="0.955078" x2="1.2022" y2="8.73846" stroke="#4A5A70" stroke-width="0.648536"/>
<line x1="28.4376" y1="0.955078" x2="28.4376" y2="8.73846" stroke="#4A5A70" stroke-width="0.648536"/>
<line x1="55.6729" y1="0.955078" x2="55.6729" y2="8.73846" stroke="#4A5A70" stroke-width="0.648536"/>
<line x1="82.9073" y1="0.955078" x2="82.9073" y2="8.73846" stroke="#4A5A70" stroke-width="0.648536"/>
<line x1="110.143" y1="0.955078" x2="110.143" y2="8.73846" stroke="#4A5A70" stroke-width="0.648536"/>
<line x1="137.378" y1="0.955078" x2="137.378" y2="8.73846" stroke="#4A5A70" stroke-width="0.648536"/>
<line x1="164.613" y1="0.955078" x2="164.613" y2="8.73846" stroke="#4A5A70" stroke-width="0.648536"/>
<line x1="191.85" y1="0.955078" x2="191.85" y2="8.73846" stroke="#4A5A70" stroke-width="0.648536"/>
<line x1="219.084" y1="0.955078" x2="219.084" y2="8.73846" stroke="#4A5A70" stroke-width="0.648536"/>
<line x1="246.319" y1="0.955078" x2="246.319" y2="8.73846" stroke="#4A5A70" stroke-width="0.648536"/>
<line x1="273.554" y1="0.955078" x2="273.554" y2="8.73846" stroke="#4A5A70" stroke-width="0.648536"/>
<line x1="300.789" y1="0.955078" x2="300.789" y2="8.73846" stroke="#4A5A70" stroke-width="0.648536"/>
<line x1="328.022" y1="0.955078" x2="328.022" y2="8.73846" stroke="#4A5A70" stroke-width="0.648536"/>
<line x1="314.407" y1="4.8468" x2="314.407" y2="8.73849" stroke="#4A5A70" stroke-width="0.648536"/>
<line x1="287.171" y1="4.8468" x2="287.171" y2="8.73849" stroke="#4A5A70" stroke-width="0.648536"/>
<line x1="259.935" y1="4.8468" x2="259.935" y2="8.73849" stroke="#4A5A70" stroke-width="0.648536"/>
<line x1="232.7" y1="4.8468" x2="232.7" y2="8.73849" stroke="#4A5A70" stroke-width="0.648536"/>
<line x1="205.466" y1="4.8468" x2="205.466" y2="8.73849" stroke="#4A5A70" stroke-width="0.648536"/>
<line x1="178.23" y1="4.8468" x2="178.23" y2="8.73849" stroke="#4A5A70" stroke-width="0.648536"/>
<line x1="150.995" y1="4.8468" x2="150.995" y2="8.73849" stroke="#4A5A70" stroke-width="0.648536"/>
<line x1="123.761" y1="4.8468" x2="123.761" y2="8.73849" stroke="#4A5A70" stroke-width="0.648536"/>
<line x1="96.5255" y1="4.8468" x2="96.5255" y2="8.73849" stroke="#4A5A70" stroke-width="0.648536"/>
<line x1="69.2901" y1="4.8468" x2="69.2901" y2="8.73849" stroke="#4A5A70" stroke-width="0.648536"/>
<line x1="42.0538" y1="4.8468" x2="42.0538" y2="8.73849" stroke="#4A5A70" stroke-width="0.648536"/>
<line x1="14.8184" y1="4.8468" x2="14.8184" y2="8.73849" stroke="#4A5A70" stroke-width="0.648536"/>
</svg>
