<svg width="21" height="20" viewBox="0 0 21 20" fill="none" xmlns="http://www.w3.org/2000/svg">
<g clip-path="url(#clip0_584_2113)">
<path d="M18.6029 0.838409H3.1862C2.26572 0.838409 1.51953 1.5846 1.51953 2.50508V14.0867C1.51953 15.0072 2.26572 15.7534 3.1862 15.7534H18.6029C19.5234 15.7534 20.2695 15.0072 20.2695 14.0867V2.50508C20.2695 1.5846 19.5234 0.838409 18.6029 0.838409Z" stroke="#13027C" stroke-linecap="round" stroke-linejoin="round"/>
<path d="M9.19038 15.7526L8.33788 19.1618" stroke="#13027C" stroke-linecap="round" stroke-linejoin="round"/>
<path d="M8.33788 19.1616H13.0254" stroke="#13027C" stroke-linecap="round" stroke-linejoin="round"/>
<path d="M12.5995 15.7526L13.4512 19.1618" stroke="#13027C" stroke-linecap="round" stroke-linejoin="round"/>
<path d="M14.7295 19.1616H7.05954" stroke="#13027C" stroke-linecap="round" stroke-linejoin="round"/>
<path d="M1.51953 12.76H20.2695" stroke="#13027C" stroke-linecap="round" stroke-linejoin="round"/>
<path d="M4.17371 4.29422H6.06204" stroke="#13027C" stroke-linecap="round" stroke-linejoin="round"/>
<path d="M7.95038 4.29422H9.08371" stroke="#13027C" stroke-linecap="round" stroke-linejoin="round"/>
<path d="M4.17371 6.84164H5.30621" stroke="#13027C" stroke-linecap="round" stroke-linejoin="round"/>
<path d="M7.19537 6.84164H9.08371" stroke="#13027C" stroke-linecap="round" stroke-linejoin="round"/>
<path d="M4.17371 9.38925H9.08371" stroke="#13027C" stroke-linecap="round" stroke-linejoin="round"/>
<path d="M11.747 0.838409V12.7601" stroke="#13027C" stroke-linecap="round" stroke-linejoin="round"/>
<path d="M11.747 10.0141L14.2904 7.53408C14.7053 7.20742 15.215 7.02403 15.7429 7.01141C16.2709 6.99879 16.7886 7.15762 17.2187 7.46408L20.2695 10.0141" stroke="#13027C" stroke-linecap="round" stroke-linejoin="round"/>
<path d="M14.7254 4.7109C14.4952 4.7109 14.3087 4.52435 14.3087 4.29423C14.3087 4.06411 14.4952 3.87756 14.7254 3.87756" stroke="#13027C"/>
<path d="M14.7254 4.7109C14.9555 4.7109 15.142 4.52435 15.142 4.29423C15.142 4.06411 14.9555 3.87756 14.7254 3.87756" stroke="#13027C"/>
</g>
<defs>
<clipPath id="clip0_584_2113">
<rect width="20" height="20" fill="white" transform="translate(0.894531)"/>
</clipPath>
</defs>
</svg>
