<svg width="21" height="20" viewBox="0 0 21 20" fill="none" xmlns="http://www.w3.org/2000/svg">
<g clip-path="url(#clip0_584_2106)">
<path d="M10.2695 14.375C10.2695 15.7011 10.7963 16.9729 11.734 17.9105C12.6717 18.8482 13.9434 19.375 15.2695 19.375C16.5956 19.375 17.8674 18.8482 18.8051 17.9105C19.7427 16.9729 20.2695 15.7011 20.2695 14.375C20.2695 13.0489 19.7427 11.7771 18.8051 10.8395C17.8674 9.90178 16.5956 9.375 15.2695 9.375C13.9434 9.375 12.6717 9.90178 11.734 10.8395C10.7963 11.7771 10.2695 13.0489 10.2695 14.375Z" stroke="#13027C" stroke-linecap="round" stroke-linejoin="round"/>
<path d="M17.4795 14.375H15.2695V12.165" stroke="#13027C" stroke-linecap="round" stroke-linejoin="round"/>
<path d="M7.76953 16.875H2.76953C2.60425 16.8791 2.43986 16.8496 2.28634 16.7882C2.13283 16.7269 1.99338 16.635 1.87648 16.518C1.75957 16.4011 1.66765 16.2617 1.60629 16.1082C1.54493 15.9547 1.51541 15.7903 1.51953 15.625V3.21417C1.50828 2.87098 1.63352 2.53732 1.86783 2.28631C2.10213 2.03529 2.42638 1.88739 2.76953 1.875H15.2695C15.6127 1.88739 15.9369 2.03529 16.1712 2.28631C16.4055 2.53732 16.5308 2.87098 16.5195 3.21417V6.875" stroke="#13027C" stroke-linecap="round" stroke-linejoin="round"/>
<path d="M5.26953 0.625V4.375" stroke="#13027C" stroke-linecap="round" stroke-linejoin="round"/>
<path d="M9.01953 0.625V4.375" stroke="#13027C" stroke-linecap="round" stroke-linejoin="round"/>
<path d="M12.7695 0.625V4.375" stroke="#13027C" stroke-linecap="round" stroke-linejoin="round"/>
</g>
<defs>
<clipPath id="clip0_584_2106">
<rect width="20" height="20" fill="white" transform="translate(0.894531)"/>
</clipPath>
</defs>
</svg>
