<svg width="24" height="24" viewBox="0 0 24 24" fill="none" xmlns="http://www.w3.org/2000/svg">
<path d="M14.3791 8.72559H3.83008C3.27779 8.72559 2.83008 9.1733 2.83008 9.72559V20.2746C2.83008 20.8269 3.27779 21.2746 3.83008 21.2746H14.3791C14.9314 21.2746 15.3791 20.8269 15.3791 20.2746V9.72559C15.3791 9.1733 14.9314 8.72559 14.3791 8.72559Z" stroke="#555555" stroke-linecap="round" stroke-linejoin="round"/>
<path d="M14.0709 2.0003L12 4.1709L14.1706 6.24177" stroke="#555555" stroke-linecap="round" stroke-linejoin="round"/>
<path d="M13 4.55176L15.335 4.84824C15.9021 4.90592 16.4523 5.07474 16.9541 5.34504C17.456 5.61535 17.8997 5.98185 18.2599 6.42363C18.6201 6.86541 18.8897 7.37381 19.0534 7.9198C19.2172 8.4658 19.2717 9.03869 19.214 9.60577L19.0944 12.0265" stroke="#555555" stroke-linecap="round" stroke-linejoin="round"/>
</svg>
