<svg width="343" height="24" viewBox="0 0 343 24" fill="none" xmlns="http://www.w3.org/2000/svg">
<line x1="176.5" x2="176.5" y2="24" stroke="#13027C"/>
<line x1="192.5" y1="8" x2="192.5" y2="24" stroke="#838383"/>
<line x1="160.5" y1="8" x2="160.5" y2="24" stroke="#838383"/>
<line x1="144.5" y1="8" x2="144.5" y2="24" stroke="#838383"/>
<line x1="128.5" y1="8" x2="128.5" y2="24" stroke="#838383"/>
<line x1="112.5" y1="8" x2="112.5" y2="24" stroke="#555555"/>
<line x1="96.5" y1="8" x2="96.5" y2="24" stroke="#838383"/>
<line x1="80.5" y1="8" x2="80.5" y2="24" stroke="#838383"/>
<line x1="64.5" y1="8" x2="64.5" y2="24" stroke="#838383"/>
<line x1="48.5" y1="8" x2="48.5" y2="24" stroke="#555555"/>
<line x1="32.5" y1="8" x2="32.5" y2="24" stroke="#838383"/>
<line x1="16.5" y1="8" x2="16.5" y2="24" stroke="#838383"/>
<line x1="0.5" y1="8" x2="0.5" y2="24" stroke="#838383"/>
<line x1="207.5" y1="8" x2="207.5" y2="24" stroke="#838383"/>
<line x1="222.5" y1="8" x2="222.5" y2="24" stroke="#838383"/>
<line x1="237.5" y1="8" x2="237.5" y2="24" stroke="#2C2C2C"/>
<line x1="252.5" y1="8" x2="252.5" y2="24" stroke="#838383"/>
<line x1="267.5" y1="8" x2="267.5" y2="24" stroke="#838383"/>
<line x1="282.5" y1="8" x2="282.5" y2="24" stroke="#838383"/>
<line x1="297.5" y1="8" x2="297.5" y2="24" stroke="#555555"/>
<line x1="312.5" y1="8" x2="312.5" y2="24" stroke="#838383"/>
<line x1="327.5" y1="8" x2="327.5" y2="24" stroke="#838383"/>
<line x1="342.5" y1="8" x2="342.5" y2="24" stroke="#838383"/>
</svg>
