<svg width="292" height="94" viewBox="0 0 292 94" fill="none" xmlns="http://www.w3.org/2000/svg">
<rect x="73.5" y="0.5" width="73" height="41" fill="#CDDAEC"/>
<rect x="73.5" y="0.5" width="73" height="41" stroke="#4A5A70"/>
<path d="M75.816 17.832C77.1707 16.744 78.232 15.8533 79 15.16C79.768 14.456 80.4133 13.7253 80.936 12.968C81.4693 12.2 81.736 11.448 81.736 10.712C81.736 10.0187 81.5653 9.47467 81.224 9.08C80.8933 8.67467 80.3547 8.472 79.608 8.472C78.8827 8.472 78.3173 8.70133 77.912 9.16C77.5173 9.608 77.304 10.2107 77.272 10.968H75.864C75.9067 9.77333 76.2693 8.85067 76.952 8.2C77.6347 7.54933 78.5147 7.224 79.592 7.224C80.6907 7.224 81.56 7.528 82.2 8.136C82.8507 8.744 83.176 9.58133 83.176 10.648C83.176 11.5333 82.9093 12.3973 82.376 13.24C81.8533 14.072 81.256 14.808 80.584 15.448C79.912 16.0773 79.0533 16.8133 78.008 17.656H83.512V18.872H75.816V17.832Z" fill="#4A5A70"/>
<g clip-path="url(#clip0_584_1485)">
<path d="M98.75 21C98.75 23.9837 99.9353 26.8452 102.045 28.955C104.155 31.0647 107.016 32.25 110 32.25C112.984 32.25 115.845 31.0647 117.955 28.955C120.065 26.8452 121.25 23.9837 121.25 21C121.25 18.0163 120.065 15.1548 117.955 13.045C115.845 10.9353 112.984 9.75 110 9.75C107.016 9.75 104.155 10.9353 102.045 13.045C99.9353 15.1548 98.75 18.0163 98.75 21Z" fill="white"/>
<g clip-path="url(#clip1_584_1485)">
<path d="M106.625 21.1865H105.125" stroke="#4A5A70" stroke-linecap="round" stroke-linejoin="round"/>
<path d="M106.625 22.6865L105.875 23.4365" stroke="#4A5A70" stroke-linecap="round" stroke-linejoin="round"/>
<path d="M106.625 19.6865L105.875 18.9365" stroke="#4A5A70" stroke-linecap="round" stroke-linejoin="round"/>
<path d="M113.375 21.1865H114.875" stroke="#4A5A70" stroke-linecap="round" stroke-linejoin="round"/>
<path d="M113.375 22.6865L114.125 23.4365" stroke="#4A5A70" stroke-linecap="round" stroke-linejoin="round"/>
<path d="M113.375 19.6865L114.125 18.9365" stroke="#4A5A70" stroke-linecap="round" stroke-linejoin="round"/>
<path d="M108.125 19.6865V17.4365C108.127 16.9397 108.325 16.4637 108.676 16.1124C109.027 15.7612 109.503 15.5631 110 15.5615C110.497 15.563 110.973 15.761 111.324 16.1123C111.676 16.4636 111.874 16.9397 111.875 17.4365V20.0615C111.874 20.426 111.767 20.7824 111.567 21.0872C111.368 21.3921 111.084 21.6325 110.75 21.779C110.514 21.8832 110.258 21.9368 110 21.9365" stroke="#4A5A70" stroke-linecap="round" stroke-linejoin="round"/>
<path d="M111.875 22.3115V24.5615C111.874 25.0584 111.676 25.5345 111.324 25.8859C110.973 26.2372 110.497 26.4352 110 26.4365C109.503 26.4351 109.027 26.2371 108.676 25.8857C108.324 25.5344 108.126 25.0584 108.125 24.5615V22.3115C108.127 21.8147 108.325 21.3387 108.676 20.9874C109.027 20.6362 109.503 20.4381 110 20.4365" stroke="#4A5A70" stroke-linecap="round" stroke-linejoin="round"/>
</g>
</g>
<rect x="0.5" y="0.5" width="73" height="41" fill="#CDDAEC"/>
<rect x="0.5" y="0.5" width="73" height="41" stroke="#4A5A70"/>
<path d="M4.608 7.76V6.432H7.616V18H6.144V7.76H4.608Z" fill="#4A5A70"/>
<g clip-path="url(#clip2_584_1485)">
<path d="M25.75 21C25.75 23.9837 26.9353 26.8452 29.045 28.955C31.1548 31.0647 34.0163 32.25 37 32.25C39.9837 32.25 42.8452 31.0647 44.955 28.955C47.0647 26.8452 48.25 23.9837 48.25 21C48.25 18.0163 47.0647 15.1548 44.955 13.045C42.8452 10.9353 39.9837 9.75 37 9.75C34.0163 9.75 31.1548 10.9353 29.045 13.045C26.9353 15.1548 25.75 18.0163 25.75 21Z" fill="white"/>
<g clip-path="url(#clip3_584_1485)">
<path d="M33.625 21.1865H32.125" stroke="#4A5A70" stroke-linecap="round" stroke-linejoin="round"/>
<path d="M33.625 22.6865L32.875 23.4365" stroke="#4A5A70" stroke-linecap="round" stroke-linejoin="round"/>
<path d="M33.625 19.6865L32.875 18.9365" stroke="#4A5A70" stroke-linecap="round" stroke-linejoin="round"/>
<path d="M40.375 21.1865H41.875" stroke="#4A5A70" stroke-linecap="round" stroke-linejoin="round"/>
<path d="M40.375 22.6865L41.125 23.4365" stroke="#4A5A70" stroke-linecap="round" stroke-linejoin="round"/>
<path d="M40.375 19.6865L41.125 18.9365" stroke="#4A5A70" stroke-linecap="round" stroke-linejoin="round"/>
<path d="M35.125 19.6865V17.4365C35.1266 16.9397 35.3246 16.4637 35.6759 16.1124C36.0272 15.7612 36.5032 15.5631 37 15.5615C37.4968 15.563 37.9729 15.761 38.3242 16.1123C38.6755 16.4636 38.8735 16.9397 38.875 17.4365V20.0615C38.874 20.426 38.7671 20.7824 38.5674 21.0872C38.3677 21.3921 38.0837 21.6325 37.75 21.779C37.5137 21.8832 37.2582 21.9368 37 21.9365" stroke="#4A5A70" stroke-linecap="round" stroke-linejoin="round"/>
<path d="M38.875 22.3115V24.5615C38.8737 25.0584 38.6757 25.5345 38.3244 25.8859C37.973 26.2372 37.4969 26.4352 37 26.4365C36.5032 26.4351 36.0271 26.2371 35.6758 25.8857C35.3245 25.5344 35.1265 25.0584 35.125 24.5615V22.3115C35.1266 21.8147 35.3246 21.3387 35.6759 20.9874C36.0272 20.6362 36.5032 20.4381 37 20.4365" stroke="#4A5A70" stroke-linecap="round" stroke-linejoin="round"/>
</g>
</g>
<rect x="73.5" y="41.5" width="147" height="52" fill="#CDDAEC"/>
<rect x="73.5" y="41.5" width="147" height="52" stroke="#4A5A70"/>
<path d="M83.368 48.696H77.752V52.344C77.9973 52.0027 78.36 51.7253 78.84 51.512C79.32 51.288 79.8373 51.176 80.392 51.176C81.2773 51.176 81.9973 51.3627 82.552 51.736C83.1067 52.0987 83.5013 52.5733 83.736 53.16C83.9813 53.736 84.104 54.3493 84.104 55C84.104 55.768 83.96 56.456 83.672 57.064C83.384 57.672 82.9413 58.152 82.344 58.504C81.7573 58.856 81.0267 59.032 80.152 59.032C79.032 59.032 78.1253 58.744 77.432 58.168C76.7387 57.592 76.3173 56.824 76.168 55.864H77.592C77.7307 56.472 78.024 56.9467 78.472 57.288C78.92 57.6293 79.4853 57.8 80.168 57.8C81.0107 57.8 81.6453 57.5493 82.072 57.048C82.4987 56.536 82.712 55.864 82.712 55.032C82.712 54.2 82.4987 53.56 82.072 53.112C81.6453 52.6533 81.016 52.424 80.184 52.424C79.6187 52.424 79.1227 52.5627 78.696 52.84C78.28 53.1067 77.976 53.4747 77.784 53.944H76.408V47.416H83.368V48.696Z" fill="#4A5A70"/>
<g clip-path="url(#clip4_584_1485)">
<path d="M135.75 68C135.75 70.9837 136.935 73.8452 139.045 75.955C141.155 78.0647 144.016 79.25 147 79.25C149.984 79.25 152.845 78.0647 154.955 75.955C157.065 73.8452 158.25 70.9837 158.25 68C158.25 65.0163 157.065 62.1548 154.955 60.045C152.845 57.9353 149.984 56.75 147 56.75C144.016 56.75 141.155 57.9353 139.045 60.045C136.935 62.1548 135.75 65.0163 135.75 68Z" fill="white"/>
<g clip-path="url(#clip5_584_1485)">
<path d="M143.625 68.1865H142.125" stroke="#4A5A70" stroke-linecap="round" stroke-linejoin="round"/>
<path d="M143.625 69.6865L142.875 70.4365" stroke="#4A5A70" stroke-linecap="round" stroke-linejoin="round"/>
<path d="M143.625 66.6865L142.875 65.9365" stroke="#4A5A70" stroke-linecap="round" stroke-linejoin="round"/>
<path d="M150.375 68.1865H151.875" stroke="#4A5A70" stroke-linecap="round" stroke-linejoin="round"/>
<path d="M150.375 69.6865L151.125 70.4365" stroke="#4A5A70" stroke-linecap="round" stroke-linejoin="round"/>
<path d="M150.375 66.6865L151.125 65.9365" stroke="#4A5A70" stroke-linecap="round" stroke-linejoin="round"/>
<path d="M145.125 66.6865V64.4365C145.127 63.9397 145.325 63.4637 145.676 63.1124C146.027 62.7612 146.503 62.5631 147 62.5615C147.497 62.563 147.973 62.761 148.324 63.1123C148.676 63.4636 148.874 63.9397 148.875 64.4365V67.0615C148.874 67.426 148.767 67.7824 148.567 68.0872C148.368 68.3921 148.084 68.6325 147.75 68.779C147.514 68.8832 147.258 68.9368 147 68.9365" stroke="#4A5A70" stroke-linecap="round" stroke-linejoin="round"/>
<path d="M148.875 69.3115V71.5615C148.874 72.0584 148.676 72.5345 148.324 72.8859C147.973 73.2372 147.497 73.4352 147 73.4365C146.503 73.4351 146.027 73.2371 145.676 72.8857C145.324 72.5344 145.126 72.0584 145.125 71.5615V69.3115C145.127 68.8147 145.325 68.3387 145.676 67.9874C146.027 67.6362 146.503 67.4381 147 67.4365" stroke="#4A5A70" stroke-linecap="round" stroke-linejoin="round"/>
</g>
</g>
<rect x="146.5" y="0.5" width="74" height="41" fill="#CDDAEC"/>
<rect x="146.5" y="0.5" width="74" height="41" stroke="#4A5A70"/>
<path d="M148.96 9.344C149.035 8.36267 149.413 7.59467 150.096 7.04C150.779 6.48533 151.664 6.208 152.752 6.208C153.477 6.208 154.101 6.34133 154.624 6.608C155.157 6.864 155.557 7.216 155.824 7.664C156.101 8.112 156.24 8.61867 156.24 9.184C156.24 9.84533 156.048 10.416 155.664 10.896C155.291 11.376 154.8 11.6853 154.192 11.824V11.904C154.885 12.0747 155.435 12.4107 155.84 12.912C156.245 13.4133 156.448 14.0693 156.448 14.88C156.448 15.488 156.309 16.0373 156.032 16.528C155.755 17.008 155.339 17.3867 154.784 17.664C154.229 17.9413 153.563 18.08 152.784 18.08C151.653 18.08 150.725 17.7867 150 17.2C149.275 16.6027 148.869 15.76 148.784 14.672H150.192C150.267 15.312 150.528 15.8347 150.976 16.24C151.424 16.6453 152.021 16.848 152.768 16.848C153.515 16.848 154.08 16.656 154.464 16.272C154.859 15.8773 155.056 15.3707 155.056 14.752C155.056 13.952 154.789 13.376 154.256 13.024C153.723 12.672 152.917 12.496 151.84 12.496H151.472V11.28H151.856C152.837 11.2693 153.579 11.1093 154.08 10.8C154.581 10.48 154.832 9.98933 154.832 9.328C154.832 8.76267 154.645 8.30933 154.272 7.968C153.909 7.62667 153.387 7.456 152.704 7.456C152.043 7.456 151.509 7.62667 151.104 7.968C150.699 8.30933 150.459 8.768 150.384 9.344H148.96Z" fill="#4A5A70"/>
<g clip-path="url(#clip6_584_1485)">
<path d="M172.75 21C172.75 23.9837 173.935 26.8452 176.045 28.955C178.155 31.0647 181.016 32.25 184 32.25C186.984 32.25 189.845 31.0647 191.955 28.955C194.065 26.8452 195.25 23.9837 195.25 21C195.25 18.0163 194.065 15.1548 191.955 13.045C189.845 10.9353 186.984 9.75 184 9.75C181.016 9.75 178.155 10.9353 176.045 13.045C173.935 15.1548 172.75 18.0163 172.75 21Z" fill="white"/>
<g clip-path="url(#clip7_584_1485)">
<path d="M180.625 21.1865H179.125" stroke="#4A5A70" stroke-linecap="round" stroke-linejoin="round"/>
<path d="M180.625 22.6865L179.875 23.4365" stroke="#4A5A70" stroke-linecap="round" stroke-linejoin="round"/>
<path d="M180.625 19.6865L179.875 18.9365" stroke="#4A5A70" stroke-linecap="round" stroke-linejoin="round"/>
<path d="M187.375 21.1865H188.875" stroke="#4A5A70" stroke-linecap="round" stroke-linejoin="round"/>
<path d="M187.375 22.6865L188.125 23.4365" stroke="#4A5A70" stroke-linecap="round" stroke-linejoin="round"/>
<path d="M187.375 19.6865L188.125 18.9365" stroke="#4A5A70" stroke-linecap="round" stroke-linejoin="round"/>
<path d="M182.125 19.6865V17.4365C182.127 16.9397 182.325 16.4637 182.676 16.1124C183.027 15.7612 183.503 15.5631 184 15.5615C184.497 15.563 184.973 15.761 185.324 16.1123C185.676 16.4636 185.874 16.9397 185.875 17.4365V20.0615C185.874 20.426 185.767 20.7824 185.567 21.0872C185.368 21.3921 185.084 21.6325 184.75 21.779C184.514 21.8832 184.258 21.9368 184 21.9365" stroke="#4A5A70" stroke-linecap="round" stroke-linejoin="round"/>
<path d="M185.875 22.3115V24.5615C185.874 25.0584 185.676 25.5345 185.324 25.8859C184.973 26.2372 184.497 26.4352 184 26.4365C183.503 26.4351 183.027 26.2371 182.676 25.8857C182.324 25.5344 182.126 25.0584 182.125 24.5615V22.3115C182.127 21.8147 182.325 21.3387 182.676 20.9874C183.027 20.6362 183.503 20.4381 184 20.4365" stroke="#4A5A70" stroke-linecap="round" stroke-linejoin="round"/>
</g>
</g>
<rect x="220.5" y="0.5" width="71" height="41" fill="#CDDAEC"/>
<rect x="220.5" y="0.5" width="71" height="41" stroke="#4A5A70"/>
<path d="M222.64 15.424V14.32L228.256 6.544H230V14.16H231.6V15.424H230V18H228.56V15.424H222.64ZM228.624 8.064L224.32 14.16H228.624V8.064Z" fill="#4A5A70"/>
<g clip-path="url(#clip8_584_1485)">
<path d="M244.75 21C244.75 23.9837 245.935 26.8452 248.045 28.955C250.155 31.0647 253.016 32.25 256 32.25C258.984 32.25 261.845 31.0647 263.955 28.955C266.065 26.8452 267.25 23.9837 267.25 21C267.25 18.0163 266.065 15.1548 263.955 13.045C261.845 10.9353 258.984 9.75 256 9.75C253.016 9.75 250.155 10.9353 248.045 13.045C245.935 15.1548 244.75 18.0163 244.75 21Z" fill="white"/>
<g clip-path="url(#clip9_584_1485)">
<path d="M252.625 21.1865H251.125" stroke="#4A5A70" stroke-linecap="round" stroke-linejoin="round"/>
<path d="M252.625 22.6865L251.875 23.4365" stroke="#4A5A70" stroke-linecap="round" stroke-linejoin="round"/>
<path d="M252.625 19.6865L251.875 18.9365" stroke="#4A5A70" stroke-linecap="round" stroke-linejoin="round"/>
<path d="M259.375 21.1865H260.875" stroke="#4A5A70" stroke-linecap="round" stroke-linejoin="round"/>
<path d="M259.375 22.6865L260.125 23.4365" stroke="#4A5A70" stroke-linecap="round" stroke-linejoin="round"/>
<path d="M259.375 19.6865L260.125 18.9365" stroke="#4A5A70" stroke-linecap="round" stroke-linejoin="round"/>
<path d="M254.125 19.6865V17.4365C254.127 16.9397 254.325 16.4637 254.676 16.1124C255.027 15.7612 255.503 15.5631 256 15.5615C256.497 15.563 256.973 15.761 257.324 16.1123C257.676 16.4636 257.874 16.9397 257.875 17.4365V20.0615C257.874 20.426 257.767 20.7824 257.567 21.0872C257.368 21.3921 257.084 21.6325 256.75 21.779C256.514 21.8832 256.258 21.9368 256 21.9365" stroke="#4A5A70" stroke-linecap="round" stroke-linejoin="round"/>
<path d="M257.875 22.3115V24.5615C257.874 25.0584 257.676 25.5345 257.324 25.8859C256.973 26.2372 256.497 26.4352 256 26.4365C255.503 26.4351 255.027 26.2371 254.676 25.8857C254.324 25.5344 254.126 25.0584 254.125 24.5615V22.3115C254.127 21.8147 254.325 21.3387 254.676 20.9874C255.027 20.6362 255.503 20.4381 256 20.4365" stroke="#4A5A70" stroke-linecap="round" stroke-linejoin="round"/>
</g>
</g>
<defs>
<clipPath id="clip0_584_1485">
<rect width="24" height="24" fill="white" transform="translate(98 9)"/>
</clipPath>
<clipPath id="clip1_584_1485">
<rect width="12" height="12" fill="white" transform="translate(104 15)"/>
</clipPath>
<clipPath id="clip2_584_1485">
<rect width="24" height="24" fill="white" transform="translate(25 9)"/>
</clipPath>
<clipPath id="clip3_584_1485">
<rect width="12" height="12" fill="white" transform="translate(31 15)"/>
</clipPath>
<clipPath id="clip4_584_1485">
<rect width="24" height="24" fill="white" transform="translate(135 56)"/>
</clipPath>
<clipPath id="clip5_584_1485">
<rect width="12" height="12" fill="white" transform="translate(141 62)"/>
</clipPath>
<clipPath id="clip6_584_1485">
<rect width="24" height="24" fill="white" transform="translate(172 9)"/>
</clipPath>
<clipPath id="clip7_584_1485">
<rect width="12" height="12" fill="white" transform="translate(178 15)"/>
</clipPath>
<clipPath id="clip8_584_1485">
<rect width="24" height="24" fill="white" transform="translate(244 9)"/>
</clipPath>
<clipPath id="clip9_584_1485">
<rect width="12" height="12" fill="white" transform="translate(250 15)"/>
</clipPath>
</defs>
</svg>
